<?xml version="1.0" encoding="utf-8"?>
<!-- Generator: Adobe Illustrator 24.1.1, SVG Export Plug-In . SVG Version: 6.00 Build 0)  -->
<svg version="1.1" id="Layer_1" xmlns="http://www.w3.org/2000/svg" xmlns:xlink="http://www.w3.org/1999/xlink" x="0px" y="0px"
	 viewBox="0 0 32 32" style="enable-background:new 0 0 32 32;" xml:space="preserve">
<style type="text/css">
	.st0{fill:none;stroke:#CCCCCC;stroke-width:0.493;}
	.st1{fill-rule:evenodd;clip-rule:evenodd;fill:#BBBBBB;}
</style>
<path class="st0" d="M31.3,16c0,8.5-6.9,15.3-15.3,15.3C7.5,31.3,0.7,24.5,0.7,16C0.7,7.5,7.5,0.7,16,0.7C24.5,0.7,31.3,7.5,31.3,16
	z"/>
<path class="st1" d="M9,6.7v18.4h15.3V11.4l-4.7-4.7H9z M11.1,11.9h7.5v-1.8h-7.5V11.9z M11.1,15.8h11.1v-1.8H11.1V15.8z M11.1,19.6
	h11.1v-1.8H11.1V19.6z M11.1,23.4h11.1v-1.8H11.1V23.4z"/>
<path class="st1" d="M9,6.7v18.4h15.3V11.4l-4.7-4.7H9z M11.1,11.9h7.5v-1.8h-7.5V11.9z M11.1,15.8h11.1v-1.8H11.1V15.8z M11.1,19.6
	h11.1v-1.8H11.1V19.6z M11.1,23.4h11.1v-1.8H11.1V23.4z"/>
</svg>
