<svg width="44" height="44" viewBox="0 0 44 44" fill="none" xmlns="http://www.w3.org/2000/svg">
<path fill-rule="evenodd" clip-rule="evenodd" d="M42.9619 22.3241C42.9619 34.0783 33.4337 43.6069 21.6791 43.6069C9.92487 43.6069 0.39624 34.0783 0.39624 22.3241C0.39624 10.5699 9.92487 1.04126 21.6791 1.04126C33.4337 1.04126 42.9619 10.5699 42.9619 22.3241" fill="#FCFCFC"/>
<path fill-rule="evenodd" clip-rule="evenodd" d="M42.9619 22.3241C42.9619 34.0783 33.4337 43.6069 21.6791 43.6069C9.92487 43.6069 0.39624 34.0783 0.39624 22.3241C0.39624 10.5699 9.92487 1.04126 21.6791 1.04126C33.4337 1.04126 42.9619 10.5699 42.9619 22.3241Z" stroke="#CCCCCC" stroke-width="0.493"/>
<mask id="mask0" mask-type="alpha" maskUnits="userSpaceOnUse" x="16" y="7" width="12" height="11">
<path fill-rule="evenodd" clip-rule="evenodd" d="M20.6455 10.8927L16.603 11.2397L19.6691 13.897L18.75 17.8478L22.2243 15.7534L25.6982 17.8478L24.7791 13.897L27.8451 11.2397L23.8036 10.8927L22.2243 7.16772L20.6455 10.8927Z" fill="white"/>
</mask>
<g mask="url(#mask0)">
<path fill-rule="evenodd" clip-rule="evenodd" d="M20.6455 10.8927L16.603 11.2397L19.6691 13.897L18.75 17.8478L22.2243 15.7534L25.6982 17.8478L24.7791 13.897L27.8451 11.2397L23.8036 10.8927L22.2243 7.16772L20.6455 10.8927Z" fill="url(#paint0_linear)"/>
</g>
<mask id="mask1" mask-type="alpha" maskUnits="userSpaceOnUse" x="28" y="20" width="9" height="11">
<path fill-rule="evenodd" clip-rule="evenodd" d="M29.1723 23.2484C29.1723 24.4124 29.8898 25.4075 30.9053 25.8206V25.8206C30.0636 25.9982 29.2983 26.3865 28.6685 26.926V26.926C29.6701 28.0218 30.3628 29.3309 30.7029 30.7486V30.7486H36.987C36.987 28.3289 35.2766 26.3023 32.995 25.8206V25.8206C34.01 25.4071 34.7262 24.412 34.7262 23.2484V23.2484C34.7262 21.7143 33.4832 20.4712 31.9491 20.4712V20.4712C30.4158 20.4712 29.1723 21.7143 29.1723 23.2484" fill="white"/>
</mask>
<g mask="url(#mask1)">
<path fill-rule="evenodd" clip-rule="evenodd" d="M29.1723 23.2484C29.1723 24.4124 29.8898 25.4075 30.9053 25.8206V25.8206C30.0636 25.9982 29.2983 26.3865 28.6685 26.926V26.926C29.6701 28.0218 30.3628 29.3309 30.7029 30.7486V30.7486H36.987C36.987 28.3289 35.2766 26.3023 32.995 25.8206V25.8206C34.01 25.4071 34.7262 24.412 34.7262 23.2484V23.2484C34.7262 21.7143 33.4832 20.4712 31.9491 20.4712V20.4712C30.4158 20.4712 29.1723 21.7143 29.1723 23.2484" fill="url(#paint1_linear)"/>
</g>
<mask id="mask2" mask-type="alpha" maskUnits="userSpaceOnUse" x="15" y="18" width="15" height="15">
<path fill-rule="evenodd" clip-rule="evenodd" d="M18.4296 22.6247C18.4296 24.1996 19.3929 25.5495 20.7629 26.1168V26.1168C17.6742 26.78 15.3631 29.5255 15.3631 32.8139V32.8139H29.0592C29.0592 29.5255 26.7429 26.78 23.6525 26.1168V26.1168C25.0225 25.5495 25.9858 24.1996 25.9858 22.6247V22.6247C25.9858 20.5385 24.2945 18.8472 22.2075 18.8472V18.8472C20.1213 18.8472 18.4296 20.5385 18.4296 22.6247" fill="white"/>
</mask>
<g mask="url(#mask2)">
<path fill-rule="evenodd" clip-rule="evenodd" d="M18.4296 22.6247C18.4296 24.1996 19.3929 25.5495 20.7629 26.1168V26.1168C17.6742 26.78 15.3631 29.5255 15.3631 32.8139V32.8139H29.0592C29.0592 29.5255 26.7429 26.78 23.6525 26.1168V26.1168C25.0225 25.5495 25.9858 24.1996 25.9858 22.6247V22.6247C25.9858 20.5385 24.2945 18.8472 22.2075 18.8472V18.8472C20.1213 18.8472 18.4296 20.5385 18.4296 22.6247" fill="url(#paint2_linear)"/>
</g>
<mask id="mask3" mask-type="alpha" maskUnits="userSpaceOnUse" x="7" y="20" width="9" height="11">
<path fill-rule="evenodd" clip-rule="evenodd" d="M9.68959 23.2484C9.68959 24.412 10.4058 25.4062 11.4204 25.8206V25.8206C9.14015 26.3018 7.42883 28.3241 7.42883 30.7486V30.7486H13.7138C14.053 29.3309 14.7458 28.0218 15.7474 26.926V26.926C15.1176 26.3865 14.3531 25.9982 13.5109 25.8206V25.8206C14.5269 25.4075 15.2435 24.4124 15.2435 23.2484V23.2484C15.2435 21.7143 14.0004 20.4712 12.4663 20.4712V20.4712C10.9327 20.4712 9.68959 21.7143 9.68959 23.2484" fill="white"/>
</mask>
<g mask="url(#mask3)">
<path fill-rule="evenodd" clip-rule="evenodd" d="M9.68959 23.2484C9.68959 24.412 10.4058 25.4062 11.4204 25.8206V25.8206C9.14015 26.3018 7.42883 28.3241 7.42883 30.7486V30.7486H13.7138C14.053 29.3309 14.7458 28.0218 15.7474 26.926V26.926C15.1176 26.3865 14.3531 25.9982 13.5109 25.8206V25.8206C14.5269 25.4075 15.2435 24.4124 15.2435 23.2484V23.2484C15.2435 21.7143 14.0004 20.4712 12.4663 20.4712V20.4712C10.9327 20.4712 9.68959 21.7143 9.68959 23.2484" fill="url(#paint3_linear)"/>
</g>
<defs>
<linearGradient id="paint0_linear" x1="11.7216" y1="5.508" x2="11.7216" y2="25.4632" gradientUnits="userSpaceOnUse">
<stop stop-color="#99CC00"/>
<stop offset="1" stop-color="#009966"/>
</linearGradient>
<linearGradient id="paint1_linear" x1="25.0575" y1="18.8746" x2="25.0575" y2="38.0755" gradientUnits="userSpaceOnUse">
<stop stop-color="#99CC00"/>
<stop offset="1" stop-color="#009966"/>
</linearGradient>
<linearGradient id="paint2_linear" x1="9.41616" y1="16.6765" x2="9.41616" y2="42.7719" gradientUnits="userSpaceOnUse">
<stop stop-color="#99CC00"/>
<stop offset="1" stop-color="#009966"/>
</linearGradient>
<linearGradient id="paint3_linear" x1="3.8177" y1="18.8746" x2="3.8177" y2="38.0755" gradientUnits="userSpaceOnUse">
<stop stop-color="#99CC00"/>
<stop offset="1" stop-color="#009966"/>
</linearGradient>
</defs>
</svg>
