<?xml version="1.0" encoding="utf-8"?>
<!-- Generator: Adobe Illustrator 24.1.1, SVG Export Plug-In . SVG Version: 6.00 Build 0)  -->
<svg version="1.1" id="Layer_1" xmlns="http://www.w3.org/2000/svg" xmlns:xlink="http://www.w3.org/1999/xlink" x="0px" y="0px"
	 viewBox="0 0 466 466" style="enable-background:new 0 0 466 466;" xml:space="preserve">
<style type="text/css">
	.st0{fill:#1CACA3;}
</style>
<path class="st0" d="M233.6,113l212,0.7c7.7,0,14-6.2,14-13.9c0-7.7-6.2-14-13.9-14l-212-0.7c-6.2-23.9-27.7-40.7-52.4-40.7
	c-24.7-0.1-46.3,16.5-52.7,40.4L21.3,84.4c-7.7,0-14,6.2-14,13.9s6.2,14,13.9,14l107.4,0.4c6.1,22.7,27.2,40.7,52.4,40.7
	C206.1,153.5,227.4,135.7,233.6,113z M154.8,98.3c0.2-14.5,12.1-26.2,26.6-26.1c14.5,0.1,26.3,12,26.2,26.6
	c-0.1,14.6-11.9,26.3-26.5,26.2C166.4,124.8,154.7,112.9,154.8,98.3z"/>
<path class="st0" d="M145.1,243.7l300.1,1c7.7,0,14-6.2,14-13.9s-6.2-14-13.9-14l-300.1-1c-6.1-22.7-27.2-40.7-52.4-40.7
	c-25.2-0.1-46.4,17.7-52.7,40.4l-19.3-0.1c-7.7,0-14,6.2-14,13.9c0,7.7,6.2,14,13.9,14l19.3,0.1c6.2,23.9,27.7,40.7,52.4,40.7
	C117.1,284.2,138.8,267.6,145.1,243.7z M66.2,230.1c0.2-14.5,12.1-26.2,26.6-26.1c14.6,0.1,26.3,12,26.2,26.6
	c-0.1,14.6-11.9,26.3-26.5,26.2C77.9,256.7,66.1,244.7,66.2,230.1z"/>
<path class="st0" d="M298.7,399.7l146,0.5c7.7,0,14-6.2,14-13.9s-6.2-14-13.9-14l-146-0.5c-6.2-23.9-27.7-40.7-52.4-40.7
	c-24.7-0.1-46.3,16.5-52.7,40.4l-173.4-0.6c-7.7,0-14,6.2-14,13.9c0,7.7,6.2,14,13.9,14l173.4,0.6c6.1,22.7,27.2,40.7,52.4,40.7
	C271.2,440.1,292.5,422.3,298.7,399.7z M219.9,384.8c0.2-14.6,12.1-26.2,26.6-26.1c14.6,0.1,26.3,12,26.2,26.5
	c-0.1,14.6-11.9,26.3-26.5,26.2C231.5,411.4,219.8,399.5,219.9,384.8z"/>
</svg>
