<?xml version="1.0" encoding="utf-8"?>
<!-- Generator: Adobe Illustrator 24.1.1, SVG Export Plug-In . SVG Version: 6.00 Build 0)  -->
<svg version="1.1" id="Layer_1" xmlns="http://www.w3.org/2000/svg" xmlns:xlink="http://www.w3.org/1999/xlink" x="0px" y="0px"
	 viewBox="0 0 22 21" style="enable-background:new 0 0 22 21;" xml:space="preserve">
<style type="text/css">
	.st0{fill-rule:evenodd;clip-rule:evenodd;fill:#8598AD;}
</style>
<path class="st0" d="M19.7,2h-2.9V0h-2v5.9h2v-2h2.9v14.7H2V3.9h2V2H2c-1.1,0-2,0.9-2,2v14.7c0,1.1,0.9,2,2,2h17.7c1.1,0,2-0.9,2-2
	V3.9C21.6,2.8,20.7,2,19.7,2z M7,3.9h6.9V2H7V0H5v5.9h2V3.9z M7.9,11.9H4V8h3.9V11.9z M9,11.9h3.9V8H9V11.9z M17.9,11.9H14V8h3.9
	V11.9z M4,16.9h3.9V13H4V16.9z M12.9,16.9H9V13h3.9V16.9z"/>
</svg>
