<svg width="32" height="31" viewBox="0 0 32 31" fill="none" xmlns="http://www.w3.org/2000/svg">
<path fill-rule="evenodd" clip-rule="evenodd" d="M31.7478 15.3921C31.7478 23.8661 24.8787 30.7356 16.4044 30.7356C7.93076 30.7356 1.06097 23.8661 1.06097 15.3921C1.06097 6.91818 7.93076 0.0487061 16.4044 0.0487061C24.8787 0.0487061 31.7478 6.91818 31.7478 15.3921Z" stroke="#CCCCCC" stroke-width="0.493"/>
<path fill-rule="evenodd" clip-rule="evenodd" d="M8.07144 23.5074H24.8738V7.33728H8.07144V23.5074ZM9.67311 21.9082H23.2743V8.93926H9.67311V21.9082Z" fill="#BBBBBB"/>
<path fill-rule="evenodd" clip-rule="evenodd" d="M14.3998 12.4877H22.1555V10.886H14.3998V12.4877Z" fill="#BBBBBB"/>
<path fill-rule="evenodd" clip-rule="evenodd" d="M14.3998 16.1998H22.1555V14.5982H14.3998V16.1998Z" fill="#BBBBBB"/>
<path fill-rule="evenodd" clip-rule="evenodd" d="M14.3998 19.9123H22.1555V18.311H14.3998V19.9123Z" fill="#BBBBBB"/>
<path fill-rule="evenodd" clip-rule="evenodd" d="M11.0936 12.4877H12.8972V10.886H11.0936V12.4877Z" fill="#BBBBBB"/>
<path fill-rule="evenodd" clip-rule="evenodd" d="M11.0936 16.1998H12.8972V14.5982H11.0936V16.1998Z" fill="#BBBBBB"/>
<path fill-rule="evenodd" clip-rule="evenodd" d="M11.0936 19.9123H12.8972V18.311H11.0936V19.9123Z" fill="#BBBBBB"/>
</svg>
