<?xml version="1.0" encoding="utf-8"?>
<!-- Generator: Adobe Illustrator 24.1.1, SVG Export Plug-In . SVG Version: 6.00 Build 0)  -->
<svg version="1.1" id="Layer_1" xmlns="http://www.w3.org/2000/svg" xmlns:xlink="http://www.w3.org/1999/xlink" x="0px" y="0px"
	 viewBox="0 0 20 24" style="enable-background:new 0 0 20 24;" xml:space="preserve">
<style type="text/css">
	.st0{fill-rule:evenodd;clip-rule:evenodd;fill:#222222;}
</style>
<path class="st0" d="M18,15.9H8V2h6v4h4L18,15.9z M15.4,0H8C6.9,0,6,0.9,6,2v14c0,1.1,0.9,2,2,2h10c1.1,0,2-0.9,2-2V4.6L15.4,0z
	 M5,3H3v15.9c0,1.1,0.9,2,2,2h12v-2H5V3z M0,6h2v15.9h12v2H2c-1.1,0-2-0.9-2-2V6z"/>
</svg>
