<svg width="44" height="44" viewBox="0 0 44 44" fill="none" xmlns="http://www.w3.org/2000/svg">
<path fill-rule="evenodd" clip-rule="evenodd" d="M43.7316 22.3241C43.7316 34.0783 34.2034 43.6069 22.4487 43.6069C10.695 43.6069 1.16589 34.0783 1.16589 22.3241C1.16589 10.5699 10.695 1.04126 22.4487 1.04126C34.2034 1.04126 43.7316 10.5699 43.7316 22.3241" fill="#FCFCFC"/>
<path fill-rule="evenodd" clip-rule="evenodd" d="M43.7316 22.3241C43.7316 34.0783 34.2034 43.6069 22.4487 43.6069C10.695 43.6069 1.16589 34.0783 1.16589 22.3241C1.16589 10.5699 10.695 1.04126 22.4487 1.04126C34.2034 1.04126 43.7316 10.5699 43.7316 22.3241Z" stroke="#CCCCCC" stroke-width="0.493"/>
<mask id="mask0" mask-type="alpha" maskUnits="userSpaceOnUse" x="29" y="15" width="9" height="12">
<path fill-rule="evenodd" clip-rule="evenodd" d="M29.6352 18.4484C29.6352 19.6507 30.3757 20.6788 31.4251 21.1044V21.1044C30.5551 21.2886 29.765 21.689 29.1148 22.2463V22.2463C30.1494 23.3773 30.8643 24.7299 31.2157 26.1927V26.1927H37.7044C37.7044 23.6953 35.9379 21.6022 33.5825 21.1044V21.1044C34.6305 20.6775 35.3702 19.6498 35.3702 18.4484V18.4484C35.3702 16.8652 34.0863 15.5813 32.5031 15.5813V15.5813C30.9191 15.5813 29.6352 16.8652 29.6352 18.4484" fill="white"/>
</mask>
<g mask="url(#mask0)">
<path fill-rule="evenodd" clip-rule="evenodd" d="M29.6352 18.4484C29.6352 19.6507 30.3757 20.6788 31.4251 21.1044V21.1044C30.5551 21.2886 29.765 21.689 29.1148 22.2463V22.2463C30.1494 23.3773 30.8643 24.7299 31.2157 26.1927V26.1927H37.7044C37.7044 23.6953 35.9379 21.6022 33.5825 21.1044V21.1044C34.6305 20.6775 35.3702 19.6498 35.3702 18.4484V18.4484C35.3702 16.8652 34.0863 15.5813 32.5031 15.5813V15.5813C30.9191 15.5813 29.6352 16.8652 29.6352 18.4484" fill="url(#paint0_linear)"/>
</g>
<mask id="mask1" mask-type="alpha" maskUnits="userSpaceOnUse" x="15" y="13" width="15" height="16">
<path fill-rule="evenodd" clip-rule="evenodd" d="M18.5429 17.8051C18.5429 19.4308 19.5384 20.8242 20.9522 21.4101V21.4101C17.7628 22.0947 15.3765 24.9301 15.3765 28.3253V28.3253H29.5192C29.5192 24.9301 27.1268 22.0947 23.9366 21.4101V21.4101C25.3508 20.8242 26.3459 19.4308 26.3459 17.8051V17.8051C26.3459 15.6503 24.5994 13.9038 22.4446 13.9038V13.9038C20.2898 13.9038 18.5429 15.6503 18.5429 17.8051" fill="white"/>
</mask>
<g mask="url(#mask1)">
<path fill-rule="evenodd" clip-rule="evenodd" d="M18.5429 17.8051C18.5429 19.4308 19.5384 20.8242 20.9522 21.4101V21.4101C17.7628 22.0947 15.3765 24.9301 15.3765 28.3253V28.3253H29.5192C29.5192 24.9301 27.1268 22.0947 23.9366 21.4101V21.4101C25.3508 20.8242 26.3459 19.4308 26.3459 17.8051V17.8051C26.3459 15.6503 24.5994 13.9038 22.4446 13.9038V13.9038C20.2898 13.9038 18.5429 15.6503 18.5429 17.8051" fill="url(#paint1_linear)"/>
</g>
<mask id="mask2" mask-type="alpha" maskUnits="userSpaceOnUse" x="7" y="15" width="9" height="12">
<path fill-rule="evenodd" clip-rule="evenodd" d="M9.51775 18.4484C9.51775 19.6498 10.257 20.6775 11.3051 21.1035V21.1035C8.9505 21.6004 7.18402 23.6896 7.18402 26.1927V26.1927H13.6727C14.0236 24.7299 14.739 23.3773 15.7727 22.2463V22.2463C15.1225 21.689 14.3333 21.2886 13.4638 21.1044V21.1044C14.5123 20.6788 15.2533 19.6507 15.2533 18.4484V18.4484C15.2533 16.8652 13.9689 15.5813 12.3853 15.5813V15.5813C10.8021 15.5813 9.51775 16.8652 9.51775 18.4484" fill="white"/>
</mask>
<g mask="url(#mask2)">
<path fill-rule="evenodd" clip-rule="evenodd" d="M9.51775 18.4484C9.51775 19.6498 10.257 20.6775 11.3051 21.1035V21.1035C8.9505 21.6004 7.18402 23.6896 7.18402 26.1927V26.1927H13.6727C14.0236 24.7299 14.739 23.3773 15.7727 22.2463V22.2463C15.1225 21.689 14.3333 21.2886 13.4638 21.1044V21.1044C14.5123 20.6788 15.2533 19.6507 15.2533 18.4484V18.4484C15.2533 16.8652 13.9689 15.5813 12.3853 15.5813V15.5813C10.8021 15.5813 9.51775 16.8652 9.51775 18.4484" fill="url(#paint2_linear)"/>
</g>
<defs>
<linearGradient id="paint0_linear" x1="25.3856" y1="13.9323" x2="25.3856" y2="33.7587" gradientUnits="userSpaceOnUse">
<stop stop-color="#99CC00"/>
<stop offset="1" stop-color="#009966"/>
</linearGradient>
<linearGradient id="paint1_linear" x1="12.7263" y1="13.9323" x2="12.7263" y2="33.7586" gradientUnits="userSpaceOnUse">
<stop stop-color="#99CC00"/>
<stop offset="1" stop-color="#009966"/>
</linearGradient>
<linearGradient id="paint2_linear" x1="3.45468" y1="13.9323" x2="3.45468" y2="33.7587" gradientUnits="userSpaceOnUse">
<stop stop-color="#99CC00"/>
<stop offset="1" stop-color="#009966"/>
</linearGradient>
</defs>
</svg>
