<svg width="58" height="62" viewBox="0 0 58 62" fill="none" xmlns="http://www.w3.org/2000/svg">
<path d="M30.3762 61L24.5539 58.2848V13.9902M30.3762 61V35.6051M30.3762 61L57 52.5351V8.55989L30.3762 16.8651L25.4008 14.4162L24.5539 13.9902M24.5539 13.9902L49.6427 6.21739L53.0302 7.12245M30.3762 27.6193V31.8784M30.3762 19.74V25.0639M18.5198 58.3381L12.6975 55.5697V11.2751M18.5198 58.3381V32.9432M18.5198 58.3381L24.7127 56.315M12.6975 11.2751L13.5974 11.701L18.5198 14.15L21.5898 13.1917M12.6975 11.2751L37.7864 3.50222L41.1739 4.46051M18.5198 24.9574V29.2165M18.5198 17.0248V22.3487M6.82231 55.7826L1 53.0674V8.77285M6.82231 55.7826V30.3878M6.82231 55.7826L12.6975 53.9193M1 8.77285L1.89981 9.19876L6.82231 11.6477L10.3686 10.5297M1 8.77285L26.0888 1L29.4764 1.90506M6.82231 22.402V26.661M6.82231 14.5226V19.8465M52.8185 27.2467L36.569 32.3043V22.2422L52.8185 17.1846V27.2467Z" stroke="#222222" stroke-width="2" stroke-miterlimit="10" stroke-linejoin="round"/>
</svg>
