<?xml version="1.0" encoding="utf-8"?>
<!-- Generator: Adobe Illustrator 24.1.1, SVG Export Plug-In . SVG Version: 6.00 Build 0)  -->
<svg version="1.1" id="Layer_1" xmlns="http://www.w3.org/2000/svg" xmlns:xlink="http://www.w3.org/1999/xlink" x="0px" y="0px"
	 viewBox="0 0 18 26" style="enable-background:new 0 0 18 26;" xml:space="preserve">
<style type="text/css">
	.st0{fill-rule:evenodd;clip-rule:evenodd;fill:#8598AD;}
</style>
<path class="st0" d="M16.4,0c0.4,0,0.7,0.2,1,0.5c0.2,0.3,0.3,0.7,0.2,1.1l-2.5,11.3l-2.5-0.5l2.2-9.8h-3.7l-1,5H7.6l-1-5H2.8
	L5,12.3l-2.5,0.5L0,1.5c-0.1-0.4,0-0.8,0.2-1.1C0.5,0.2,0.9,0,1.3,0H16.4z M9.1,20.4c-0.2-0.1-0.4-0.1-0.6-0.1c-0.2,0-0.4,0-0.6,0.1
	l-2.6,1.3L6,19.3c0.1-0.3,0-0.7-0.2-1l-1.2-1.8H6c0.5,0,0.9-0.3,1.1-0.7L8.6,13l1.4,2.8c0.2,0.4,0.7,0.7,1.1,0.7h1.4l-1.2,1.8
	c-0.2,0.3-0.3,0.7-0.2,1l0.6,2.4L9.1,20.4z M13,25.2c0.2,0.1,0.4,0.1,0.6,0.1c0.3,0,0.6-0.1,0.8-0.3c0.4-0.3,0.6-0.8,0.4-1.3
	l-1.1-4.5l2.2-3.3c0.3-0.4,0.3-0.9,0.1-1.3c-0.2-0.4-0.6-0.7-1.1-0.7h-3L9.7,9.6c-0.4-0.9-1.8-0.9-2.3,0L5.3,14h-3
	c-0.5,0-0.9,0.3-1.1,0.7c-0.2,0.4-0.2,0.9,0.1,1.3l2.2,3.3l-1.1,4.5c-0.1,0.5,0,1,0.4,1.3c0.4,0.3,0.9,0.4,1.4,0.1L8.6,23L13,25.2z"
	/>
</svg>
