<svg width="57" height="58" viewBox="0 0 57 58" fill="none" xmlns="http://www.w3.org/2000/svg">
<path d="M28.5768 15.7153C20.4419 12.854 12.307 12.854 4.17211 15.7153V48.0073C12.307 45.6569 20.4419 45.6569 28.5768 48.0073V15.7153ZM28.5768 15.7153L31.4419 10.3504C34.4093 4.57664 40.3954 1 46.893 1V33.292C40.3954 33.292 34.4605 36.8686 31.4419 42.6423L28.6279 48.0073M4.93953 19.0365H1V54.2409H25.4558M31.5442 54.2409H56V19.0365H52.214M46.893 14.0803C48.9395 14.438 50.986 15 53.0325 15.7153V48.0073C44.8977 45.6569 36.7628 45.6569 28.6279 48.0073M28.6279 48.0073V15.7153M46.893 21.0803C47.9163 21.2847 48.9395 21.489 49.9628 21.7445M46.2279 26.4453C47.4558 26.6496 48.7349 26.9051 49.9628 27.2117M46.893 32.5766C47.9163 32.781 48.9395 32.9854 49.9628 33.2409M34.8698 38.0438C39.8837 37.1752 44.8977 37.4307 49.9116 38.7591M12.1023 20.8248C16.5535 20.2628 21.0047 20.6204 25.4558 21.7956M7.29301 21.7445C8.36742 21.489 9.39068 21.2336 10.4651 21.0803M7.29301 27.2117C13.3302 25.6277 19.4186 25.6277 25.4558 27.2628M22.4884 32.6277C23.4605 32.781 24.4837 33.0365 25.4558 33.292M18.293 32.1168C19.2139 32.1679 20.1349 32.2701 21.0558 32.3723M7.29301 33.2409C10.3116 32.4234 13.3302 32.0657 16.4 32.0657M7.29301 38.708C13.3302 37.1241 19.4186 37.1241 25.4558 38.7591M25.3535 49.8467V53.8321C25.3535 55.5693 26.786 57 28.5255 57C30.2651 57 31.6976 55.5693 31.6976 53.8321V50M52.9814 47.4963V50.6131H33.9489M4.17211 47.4963V50.6131H23.2558" stroke="#222222" stroke-width="2" stroke-miterlimit="10" stroke-linejoin="round"/>
</svg>
