<svg width="21" height="31" viewBox="0 0 21 31" fill="none" xmlns="http://www.w3.org/2000/svg">
<path fill-rule="evenodd" clip-rule="evenodd" d="M19.4998 0C19.9542 0 20.3849 0.214873 20.6704 0.586244C20.9547 0.956373 21.063 1.44201 20.9642 1.90529L17.9639 16L15.035 15.3206L17.6296 3.13243H13.1993L12.0002 9.39606H8.99985L7.79948 3.13243H3.3692L5.96384 15.3206L3.0349 16L0.035774 1.90529C-0.0629676 1.44201 0.0452913 0.956373 0.32843 0.586244C0.613948 0.214873 1.0446 0 1.49905 0H19.4998ZM11.671 24.9887C11.4592 24.8785 11.2296 24.8246 11 24.8246C10.7704 24.8246 10.5396 24.8785 10.329 24.9887L7.24668 26.5743L7.9557 23.6553C8.05801 23.2329 7.98188 22.786 7.74752 22.4248L6.30329 20.1926H7.99972C8.56837 20.1926 9.08824 19.8633 9.34164 19.3392L11 15.9255L12.6584 19.3392C12.9118 19.8633 13.4316 20.1926 14.0003 20.1926H15.6967L14.2525 22.4248C14.0181 22.786 13.942 23.2329 14.0443 23.6553L14.7533 26.5743L11.671 24.9887ZM16.3284 30.8365C16.5414 30.9467 16.7721 30.9994 16.9994 30.9994C17.3348 30.9994 17.6668 30.8843 17.938 30.6602C18.396 30.2831 18.5971 29.666 18.4555 29.0819L17.116 23.5684L19.7486 19.5057C20.0556 19.0319 20.0829 18.4234 19.8224 17.9213C19.5619 17.4181 19.0527 17.1059 18.4995 17.1059H14.927L12.3419 11.7833C11.8339 10.7389 10.1661 10.7389 9.65808 11.7833L7.07299 17.1059H3.50049C2.94731 17.1059 2.43814 17.4181 2.17761 17.9213C1.91708 18.4234 1.94444 19.0319 2.25136 19.5057L4.88405 23.5684L3.54451 29.0819C3.40294 29.666 3.60399 30.2831 4.062 30.6602C4.51763 31.0373 5.14696 31.1071 5.67159 30.8365L11 28.0963L16.3284 30.8365Z" fill="url(#paint0_linear)"/>
<defs>
<linearGradient id="paint0_linear" x1="0.282743" y1="30.7913" x2="21" y2="30.7913" gradientUnits="userSpaceOnUse">
<stop stop-color="#008FFF"/>
<stop offset="1" stop-color="#7C84E5"/>
</linearGradient>
</defs>
</svg>
