<svg width="38" height="38" viewBox="0 0 38 38" fill="none" xmlns="http://www.w3.org/2000/svg">
<path d="M34.8828 13.3595H24.4444C24.4774 12.9933 24.4954 12.6225 24.4954 12.2476C24.4954 5.49426 19.0009 0 12.2475 0C10.0964 0 7.98026 0.565922 6.12798 1.6363C5.77312 1.84128 5.65164 2.29529 5.85661 2.65015C6.06187 3.0053 6.51588 3.12649 6.87074 2.92152C8.49747 1.98131 10.3567 1.48439 12.2475 1.48439C18.1824 1.48439 23.011 6.3127 23.011 12.2476C23.011 18.1826 18.1824 23.0112 12.2475 23.0112C9.76324 23.0112 7.42941 22.1881 5.49828 20.6312C5.30461 20.4753 5.04803 20.4286 4.81436 20.5002L2.84438 21.0154L3.61613 19.3193C3.72717 19.0758 3.69818 18.7917 3.54076 18.5751C2.19554 16.7275 1.48438 14.5394 1.48438 12.2476C1.48438 10.3519 1.9839 8.48796 2.92903 6.85775C3.13458 6.50289 3.01369 6.04887 2.65912 5.84332C2.30455 5.63777 1.85054 5.75838 1.6447 6.11324C0.568817 7.9693 0 10.0906 0 12.2476C0 14.7088 0.721024 17.0655 2.08943 19.0906L0.846848 21.8208C0.727982 22.0814 0.77002 22.387 0.954407 22.6062C1.13879 22.8253 1.43277 22.9187 1.70993 22.8462L4.86626 22.0211C6.98207 23.6194 9.58813 24.4956 12.2475 24.4956C12.8265 24.4956 13.3956 24.4541 13.9531 24.3761V30.8752C13.9531 32.5939 15.3514 33.9924 17.07 33.9924H27.567L32.2605 37.8324C32.3956 37.9432 32.5623 38 32.7305 38C32.8386 38 32.947 37.9765 33.0482 37.9287C33.3074 37.8058 33.4727 37.5448 33.4727 37.2578V33.9924H34.8828C36.6017 33.9924 38 32.5939 38 30.8752V16.4767C38 14.7578 36.6017 13.3595 34.8828 13.3595ZM36.5156 30.8752C36.5156 31.7754 35.7833 32.5081 34.8828 32.5081H32.7305C32.3205 32.5081 31.9883 32.8403 31.9883 33.2503V35.6917L28.3226 32.6924C28.1205 32.5081 27.9436 32.5081 27.5462 32.5081H17.07C16.1698 32.5081 15.4375 31.7754 15.4375 30.8752V24.0732C19.8277 22.8877 23.2482 19.3176 24.2173 14.8439H34.8828C35.7833 14.8439 36.5156 15.5762 36.5156 16.4767V30.8752Z" fill="#222222"/>
<path d="M29.6696 25.8733C29.9212 25.7547 30.0957 25.4993 30.0957 25.2024C30.0957 24.7927 29.7635 24.4602 29.3535 24.4602H29.0497L26.6562 19.0051C26.5376 18.7352 26.2709 18.5609 25.9763 18.5609C25.6817 18.5609 25.415 18.7352 25.2967 19.0051L22.9032 24.4602H22.5993C22.1894 24.4602 21.8572 24.7927 21.8572 25.2024C21.8572 25.4993 22.0317 25.7547 22.2833 25.8733L21.3918 27.905C21.2272 28.2805 21.3979 28.7182 21.7731 28.8829C22.1485 29.0476 22.5863 28.8768 22.751 28.5014L23.873 25.9446H28.0799L29.2019 28.5014C29.324 28.7797 29.5962 28.9455 29.8821 28.9455C29.9815 28.9455 30.0827 28.9255 30.1798 28.8829C30.555 28.7182 30.726 28.2805 30.5611 27.905L29.6696 25.8733ZM24.5241 24.4602L25.9763 21.1505L27.4285 24.4602H24.5241Z" fill="#222222"/>
<path d="M4.11189 4.85383C4.30701 4.85383 4.49835 4.77439 4.63664 4.63639C4.77464 4.49839 4.85408 4.30704 4.85408 4.11163C4.85408 3.91652 4.77464 3.72517 4.63664 3.58688C4.49835 3.44888 4.30701 3.36944 4.11189 3.36944C3.91591 3.36944 3.72514 3.44888 3.58714 3.58688C3.44914 3.72517 3.36971 3.91652 3.36971 4.11163C3.36971 4.30704 3.44914 4.49839 3.58714 4.63639C3.72514 4.77468 3.91649 4.85383 4.11189 4.85383Z" fill="#222222"/>
<path d="M7.81755 16.7646C7.45805 16.9617 7.32643 17.4128 7.52357 17.7723C7.65867 18.0185 7.91293 18.1579 8.17501 18.1579C8.29562 18.1579 8.41797 18.1284 8.53132 18.0663C10.1865 17.1586 11.4598 15.7467 12.2046 14.0817C12.9497 15.7467 14.2227 17.1586 15.8778 18.0663C15.9912 18.1284 16.1135 18.1579 16.2341 18.1579C16.4962 18.1579 16.7505 18.0185 16.8856 17.7723C17.0827 17.4128 16.9511 16.9617 16.5916 16.7646C14.6541 15.702 13.35 13.8031 13.0262 11.6574H16.3214C16.7313 11.6574 17.0636 11.3251 17.0636 10.9152C17.0636 10.5052 16.7313 10.173 16.3214 10.173H12.9468V7.08012C12.9468 6.67017 12.6145 6.33792 12.2046 6.33792C11.7946 6.33792 11.4624 6.67017 11.4624 7.08012V10.173H8.78123C8.37129 10.173 8.03904 10.5052 8.03904 10.9152C8.03904 11.3251 8.37129 11.6574 8.78123 11.6574H11.3829C11.0591 13.8031 9.75506 15.7023 7.81755 16.7646Z" fill="#222222"/>
</svg>
