<svg width="63" height="54" viewBox="0 0 63 54" fill="none" xmlns="http://www.w3.org/2000/svg">
<path d="M27.4572 54C26.9519 54 26.615 53.8318 26.4465 53.3271L18.0241 39.028H7.41176C3.36898 39.028 0 35.6636 0 31.6262V7.40187C0 3.36449 3.36898 0 7.41176 0H43.9652C48.008 0 51.377 3.36449 51.377 7.40187V31.6262C51.377 35.6636 48.008 39.028 43.9652 39.028H31.1631L28.8048 52.9907C28.6364 53.4953 28.2995 54 27.7941 54C27.6257 54 27.6257 54 27.4572 54ZM7.41176 2.52336C4.71658 2.52336 2.52674 4.71028 2.52674 7.40187V31.6262C2.52674 34.3178 4.71658 36.5047 7.41176 36.5047H18.6979C19.2032 36.5047 19.5401 36.6729 19.7086 37.1776L26.7834 49.1215L28.8048 37.514C28.9733 36.8411 29.4786 36.5047 29.984 36.5047H43.7968C46.492 36.5047 48.6818 34.3178 48.6818 31.6262V7.40187C48.6818 4.71028 46.492 2.52336 43.7968 2.52336H7.41176Z" fill="#222222"/>
<path d="M55.5882 40.2056H53.0615C52.3877 40.2056 51.8823 39.7009 51.8823 39.028C51.8823 38.3551 52.3877 37.8505 53.0615 37.8505H55.5882C58.2834 37.8505 60.4733 35.6636 60.4733 32.972V11.271C60.4733 8.57944 58.2834 6.39252 55.5882 6.39252H50.3663C49.6925 6.39252 49.1872 5.88785 49.1872 5.21495C49.1872 4.54206 49.6925 4.03738 50.3663 4.03738H55.5882C59.631 4.03738 63 7.40187 63 11.4393V33.1402C62.8316 37.0093 59.631 40.2056 55.5882 40.2056Z" fill="#222222"/>
<path d="M44.3021 54H44.1337C43.6283 53.8318 43.2914 53.4953 43.123 52.9907L40.4278 38.0187C40.2594 37.3458 40.7647 36.6729 41.4385 36.5047C42.1123 36.3365 42.7861 36.8411 42.9545 37.514L44.9759 49.2897L51.8823 38.3551C52.2192 37.8505 53.0615 37.514 53.5668 38.0187C54.0722 38.3551 54.4091 39.1963 53.9037 39.7009L45.1444 53.3271C45.1444 53.6636 44.639 54 44.3021 54Z" fill="#222222"/>
<path d="M38.9118 9.92523H7.41176C6.73797 9.92523 6.23262 9.25234 6.23262 8.57944C6.23262 7.90654 6.73797 7.40187 7.41176 7.40187H38.9118C39.5856 7.40187 40.0909 7.90654 40.0909 8.57944C40.2594 9.25234 39.5856 9.92523 38.9118 9.92523Z" fill="#222222"/>
<path d="M35.7112 17.1589H10.6123C9.9385 17.1589 9.43315 16.6542 9.43315 15.9813C9.43315 15.3084 9.9385 14.8037 10.6123 14.8037H35.7112C36.385 14.6355 37.0588 15.1402 37.0588 15.8131C37.0588 16.486 36.385 17.1589 35.7112 17.1589Z" fill="#222222"/>
<path d="M35.7112 24.3925H10.6123C9.9385 24.3925 9.43315 23.8879 9.43315 23.215C9.43315 22.5421 9.9385 22.0374 10.6123 22.0374H35.7112C36.385 22.0374 36.8904 22.5421 36.8904 23.215C37.0588 23.8879 36.385 24.3925 35.7112 24.3925Z" fill="#222222"/>
<path d="M38.9118 31.6262H7.41176C6.73797 31.6262 6.23262 31.1215 6.23262 30.4486C6.23262 29.7757 6.73797 29.271 7.41176 29.271H38.9118C39.5856 29.271 40.0909 29.7757 40.0909 30.4486C40.2594 31.1215 39.5856 31.6262 38.9118 31.6262Z" fill="#222222"/>
</svg>
