<svg width="23" height="31" viewBox="0 0 23 31" fill="none" xmlns="http://www.w3.org/2000/svg">
<path d="M20.125 31H2.875C1.29057 31 0 29.6968 0 28.0938V14.5312C0 12.9282 1.29057 11.625 2.875 11.625H20.125C21.7094 11.625 23 12.9282 23 14.5312V28.0938C23 29.6968 21.7094 31 20.125 31ZM2.875 13.5625C2.34717 13.5625 1.91667 13.9965 1.91667 14.5312V28.0938C1.91667 28.6285 2.34717 29.0625 2.875 29.0625H20.125C20.6528 29.0625 21.0833 28.6285 21.0833 28.0938V14.5312C21.0833 13.9965 20.6528 13.5625 20.125 13.5625H2.875Z" fill="#222222"/>
<path d="M18.2083 13.5625C17.6793 13.5625 17.25 13.1285 17.25 12.5938V7.75C17.25 4.54527 14.6703 1.9375 11.5 1.9375C8.32973 1.9375 5.75 4.54527 5.75 7.75V12.5938C5.75 13.1285 5.32067 13.5625 4.79167 13.5625C4.26266 13.5625 3.83333 13.1285 3.83333 12.5938V7.75C3.83333 3.47577 7.27173 0 11.5 0C15.7283 0 19.1667 3.47577 19.1667 7.75V12.5938C19.1667 13.1285 18.7373 13.5625 18.2083 13.5625Z" fill="#222222"/>
</svg>
