<svg width="44" height="44" viewBox="0 0 44 44" fill="none" xmlns="http://www.w3.org/2000/svg">
<path fill-rule="evenodd" clip-rule="evenodd" d="M43.578 22.4513C43.578 34.2055 34.0498 43.7341 22.2952 43.7341C10.541 43.7341 1.01233 34.2055 1.01233 22.4513C1.01233 10.6971 10.541 1.16846 22.2952 1.16846C34.0498 1.16846 43.578 10.6971 43.578 22.4513" fill="#FCFCFC"/>
<path fill-rule="evenodd" clip-rule="evenodd" d="M43.578 22.4513C43.578 34.2055 34.0498 43.7341 22.2952 43.7341C10.541 43.7341 1.01233 34.2055 1.01233 22.4513C1.01233 10.6971 10.541 1.16846 22.2952 1.16846C34.0498 1.16846 43.578 10.6971 43.578 22.4513Z" stroke="#CCCCCC" stroke-width="0.493"/>
<mask id="mask0" mask-type="alpha" maskUnits="userSpaceOnUse" x="10" y="12" width="25" height="20">
<path fill-rule="evenodd" clip-rule="evenodd" d="M10.1875 31.6763H34.7501V12.9626H10.1875V31.6763ZM12.527 15.3024H32.4104V29.3395H29.7361L29.7457 31.338L26.6258 30.4571L23.4512 31.3697V29.3395H12.527V15.3024Z" fill="white"/>
</mask>
<g mask="url(#mask0)">
<path fill-rule="evenodd" clip-rule="evenodd" d="M10.1875 31.6763H34.7501V12.9626H10.1875V31.6763ZM12.527 15.3024H32.4104V29.3395H29.7361L29.7457 31.338L26.6258 30.4571L23.4512 31.3697V29.3395H12.527V15.3024Z" fill="url(#paint0_linear)"/>
</g>
<mask id="mask1" mask-type="alpha" maskUnits="userSpaceOnUse" x="21" y="17" width="11" height="13">
<path fill-rule="evenodd" clip-rule="evenodd" d="M25.0598 17.9595L23.3194 18.4325L22.8438 20.1703L21.9469 21.7357L22.8438 23.3019L23.3159 25.0458L24.4127 25.5244V29.8018L26.6226 29.0865L28.8087 29.7402L28.7878 25.5435L29.9327 25.0458L30.4057 23.3045L31.3018 21.7391L30.4057 20.1733L29.9327 18.4325L28.1919 17.9595L26.6261 17.063L25.0598 17.9595ZM24.2445 22.7707L23.6633 21.7365L24.2097 20.7871L24.5329 19.646L25.5888 19.3581L26.6225 18.7804L27.5755 19.3238L28.7165 19.646L29.0036 20.7024L29.5813 21.7365L29.0362 22.6895L28.7135 23.8305L27.6593 24.1176L26.6251 24.6975L25.6752 24.1528L24.5351 23.8305H24.5329L24.2445 22.7707Z" fill="white"/>
</mask>
<g mask="url(#mask1)">
<path fill-rule="evenodd" clip-rule="evenodd" d="M25.0598 17.9595L23.3194 18.4325L22.8438 20.1703L21.9469 21.7357L22.8438 23.3019L23.3159 25.0458L24.4127 25.5244V29.8018L26.6226 29.0865L28.8087 29.7402L28.7878 25.5435L29.9327 25.0458L30.4057 23.3045L31.3018 21.7391L30.4057 20.1733L29.9327 18.4325L28.1919 17.9595L26.6261 17.063L25.0598 17.9595ZM24.2445 22.7707L23.6633 21.7365L24.2097 20.7871L24.5329 19.646L25.5888 19.3581L26.6225 18.7804L27.5755 19.3238L28.7165 19.646L29.0036 20.7024L29.5813 21.7365L29.0362 22.6895L28.7135 23.8305L27.6593 24.1176L26.6251 24.6975L25.6752 24.1528L24.5351 23.8305H24.5329L24.2445 22.7707Z" fill="url(#paint1_linear)"/>
</g>
<path fill-rule="evenodd" clip-rule="evenodd" d="M14.2804 19.6992H20.3191V17.9319H14.2804V19.6992Z" fill="url(#paint2_linear)"/>
<path fill-rule="evenodd" clip-rule="evenodd" d="M14.2804 22.9727H20.3191V21.2053H14.2804V22.9727Z" fill="url(#paint3_linear)"/>
<path fill-rule="evenodd" clip-rule="evenodd" d="M14.2804 26.5337H20.3191V24.7664H14.2804V26.5337Z" fill="url(#paint4_linear)"/>
<defs>
<linearGradient id="paint0_linear" x1="9.73869" y1="12.8476" x2="9.73869" y2="32.2449" gradientUnits="userSpaceOnUse">
<stop stop-color="#F4CC12"/>
<stop offset="1" stop-color="#FF9900"/>
</linearGradient>
<linearGradient id="paint1_linear" x1="19.5023" y1="12.8478" x2="19.5023" y2="32.245" gradientUnits="userSpaceOnUse">
<stop stop-color="#F4CC12"/>
<stop offset="1" stop-color="#FF9900"/>
</linearGradient>
<linearGradient id="paint2_linear" x1="-15.8385" y1="12.8476" x2="-15.8385" y2="32.2448" gradientUnits="userSpaceOnUse">
<stop stop-color="#F4CC12"/>
<stop offset="1" stop-color="#FF9900"/>
</linearGradient>
<linearGradient id="paint3_linear" x1="-15.8385" y1="12.8478" x2="-15.8385" y2="32.245" gradientUnits="userSpaceOnUse">
<stop stop-color="#F4CC12"/>
<stop offset="1" stop-color="#FF9900"/>
</linearGradient>
<linearGradient id="paint4_linear" x1="-15.8385" y1="12.8476" x2="-15.8385" y2="32.2449" gradientUnits="userSpaceOnUse">
<stop stop-color="#F4CC12"/>
<stop offset="1" stop-color="#FF9900"/>
</linearGradient>
</defs>
</svg>
