<svg width="57" height="63" viewBox="0 0 57 63" fill="none" xmlns="http://www.w3.org/2000/svg">
<path d="M43.9131 20.9592C43.2248 20.9592 42.6667 20.4082 42.6667 19.7287V11.3149C42.6667 10.6354 43.2248 10.0844 43.9131 10.0844C44.6014 10.0844 45.1596 10.6354 45.1596 11.3149V19.7287C45.1596 20.4082 44.6016 20.9592 43.9131 20.9592Z" fill="#222222"/>
<path d="M43.9078 8.58596C44.5962 8.58596 45.1542 8.03506 45.1542 7.35549C45.1542 6.67592 44.5962 6.12502 43.9078 6.12502C43.2194 6.12502 42.6613 6.67592 42.6613 7.35549C42.6613 8.03506 43.2194 8.58596 43.9078 8.58596Z" fill="#222222"/>
<path d="M57 12.9269C57 5.79895 51.1268 0 43.9076 0C40.9194 0 38.162 0.993481 35.9561 2.66347H4.53623C2.03497 2.66347 0 4.67221 0 7.14152V51.9026C0 54.3718 2.03497 56.3808 4.53623 56.3808H8.49137V58.5218C8.49137 60.991 10.5263 63 13.0276 63H45.6176C48.1189 63 50.1538 60.9911 50.1538 58.5218V41.455C50.1538 40.7755 49.5957 40.2245 48.9074 40.2245C48.2191 40.2245 47.6609 40.7755 47.6609 41.455V58.5218C47.6609 59.634 46.7443 60.5391 45.6176 60.5391H13.0276C11.9009 60.5391 10.9843 59.6342 10.9843 58.5218V56.3808H37.1264C39.6276 56.3808 41.6627 54.372 41.6627 51.9026V25.6636C42.3924 25.7887 43.1424 25.8539 43.9077 25.8539C45.2116 25.8539 46.4717 25.6646 47.661 25.3126V30.3302C47.661 31.0097 48.2192 31.5607 48.9075 31.5607C49.5958 31.5607 50.1539 31.0097 50.1539 30.3302V24.2855C54.2289 22.0921 57 17.8231 57 12.9269ZM39.1698 51.9028C39.1698 53.015 38.2532 53.92 37.1264 53.92H4.53623C3.40956 53.92 2.49291 53.0151 2.49291 51.9028V7.14152C2.49291 6.0293 3.40956 5.12441 4.53623 5.12441H33.4754C31.9108 7.15874 30.9418 9.66275 30.8269 12.381H9.60084C8.91254 12.381 8.35438 12.932 8.35438 13.6114V18.8082C8.35438 19.4877 8.91254 20.0387 9.60084 20.0387H32.0618C32.3451 20.0387 32.6063 19.9453 32.8157 19.788C34.3047 22.1264 36.5309 23.9631 39.1698 24.978V51.9028ZM30.8153 14.8419V17.5777H10.8473V14.8419H30.8153ZM43.9076 23.3928C38.0631 23.3928 33.3082 18.6978 33.3082 12.9268C33.3082 7.15591 38.0631 2.46081 43.9076 2.46081C49.7522 2.46081 54.5071 7.15579 54.5071 12.9268C54.5071 18.6978 49.7522 23.3928 43.9076 23.3928Z" fill="#222222"/>
<path d="M48.9071 37.1011C48.3935 37.1011 47.9227 36.7766 47.7418 36.3035C47.5559 35.818 47.7081 35.247 48.1168 34.9186C48.5263 34.5897 49.1157 34.5502 49.5648 34.8254C50.013 35.1 50.2425 35.6418 50.1212 36.1498C49.99 36.6994 49.4798 37.1011 48.9071 37.1011Z" fill="#222222"/>
<path d="M32.0617 26.7791H9.60075C8.91245 26.7791 8.35429 26.2282 8.35429 25.5486C8.35429 24.8691 8.91245 24.3181 9.60075 24.3181H32.0617C32.75 24.3181 33.3081 24.8691 33.3081 25.5486C33.3081 26.2281 32.7501 26.7791 32.0617 26.7791Z" fill="#222222"/>
<path d="M32.0617 32.6152H9.60075C8.91245 32.6152 8.35429 32.0642 8.35429 31.3847C8.35429 30.7051 8.91245 30.1542 9.60075 30.1542H32.0617C32.75 30.1542 33.3081 30.7051 33.3081 31.3847C33.3081 32.0642 32.7501 32.6152 32.0617 32.6152Z" fill="#222222"/>
<path d="M32.0617 38.4513H9.60075C8.91245 38.4513 8.35429 37.9003 8.35429 37.2208C8.35429 36.5413 8.91245 35.9903 9.60075 35.9903H32.0617C32.75 35.9903 33.3081 36.5413 33.3081 37.2208C33.3081 37.9004 32.7501 38.4513 32.0617 38.4513Z" fill="#222222"/>
<path d="M32.0617 44.2874H9.60075C8.91245 44.2874 8.35429 43.7364 8.35429 43.0569C8.35429 42.3774 8.91245 41.8265 9.60075 41.8265H32.0617C32.75 41.8265 33.3081 42.3774 33.3081 43.0569C33.3081 43.7364 32.7501 44.2874 32.0617 44.2874Z" fill="#222222"/>
</svg>
