<svg width="29" height="35" viewBox="0 0 29 35" fill="none" xmlns="http://www.w3.org/2000/svg">
<path fill-rule="evenodd" clip-rule="evenodd" d="M24.0487 6.29062L21.9858 4.42635V6.29062H24.0487ZM25.7766 32.1059V8.6373L20.8377 8.63554C19.97 8.63554 19.4731 8.17256 19.4731 7.36324V2.64513H2.83429V32.1059H25.7766ZM1.29464 34.4614C0.820318 34.2777 0.528575 34.0038 0.349765 33.6327L0.332825 1.19612C0.624568 0.552904 1.10265 0.287842 1.85742 0.287842C4.96684 0.293143 8.06873 0.29491 11.1706 0.29491L20.4744 0.289609C21.0052 0.289609 21.423 0.45218 21.792 0.805597C23.7702 2.69814 25.7559 4.58362 27.751 6.46379C28.1256 6.81367 28.2988 7.20597 28.2969 7.69898C28.2875 16.1403 28.2856 24.5834 28.3007 33.0248C28.3007 33.7352 28.0164 34.1875 27.4066 34.4473L27.3708 34.4614H1.29464ZM8.40091 13.3064C8.09939 13.3064 7.81014 13.1734 7.56122 12.9221C6.9091 12.2664 6.26926 11.5998 5.63467 10.9223C5.15786 10.416 5.14559 9.69293 5.60312 9.20483C5.824 8.96988 6.11149 8.84239 6.41476 8.84239C6.72504 8.84239 7.03357 8.97717 7.28249 9.22304C7.4911 9.42703 7.69269 9.63829 7.89078 9.85321L8.39915 10.416L9.41414 9.32321L9.57095 9.15943L9.57118 9.1592C10.2028 8.49949 10.8362 7.83787 11.4757 7.18867C11.7228 6.93551 12.0314 6.7971 12.3451 6.7971C12.6467 6.7971 12.9342 6.92459 13.1568 7.15771C13.6161 7.64217 13.6056 8.38161 13.1305 8.877C11.8403 10.232 10.5431 11.5816 9.23884 12.9202C8.99342 13.1734 8.70242 13.3064 8.40091 13.3064ZM7.56134 21.0586C7.81028 21.31 8.09954 21.4429 8.40107 21.4429C8.7026 21.4429 8.99362 21.31 9.23905 21.0568C10.5433 19.7182 11.8406 18.3686 13.1327 17.0136C13.6042 16.5164 13.6165 15.7787 13.1572 15.2943C12.9363 15.0612 12.6488 14.9337 12.3455 14.9337C12.0317 14.9337 11.7232 15.0721 11.476 15.3252C10.8235 15.9879 10.1771 16.6631 9.53243 17.3363L9.37228 17.5035L8.40282 18.5489L8.1644 18.2939C7.86112 17.9661 7.57712 17.6601 7.2826 17.3633C7.03717 17.1137 6.72862 16.9753 6.41657 16.9753C6.11154 16.9753 5.82227 17.1046 5.60314 17.3414C5.14558 17.8313 5.15785 18.5525 5.63469 19.057C6.26931 19.7346 6.90919 20.403 7.56134 21.0586ZM8.39983 29.5795C8.08036 29.5795 7.76265 29.4101 7.42738 29.0657L5.68786 27.2585C5.41579 26.9725 5.26658 26.6264 5.26834 26.2821C5.27009 25.9742 5.38946 25.69 5.61414 25.4622C5.83706 25.2345 6.10738 25.1161 6.40052 25.1161C6.72877 25.1161 7.06403 25.2728 7.34313 25.5588L8.46127 26.7102L9.1827 25.8466L11.4172 23.5166C11.7033 23.216 12.0035 23.0702 12.3317 23.0702C12.4248 23.0702 12.5213 23.083 12.6161 23.1049C12.99 23.2014 13.2919 23.4801 13.4236 23.8554C13.557 24.2362 13.499 24.6607 13.2691 24.9868C13.2042 25.0832 13.1219 25.1705 13.0413 25.256L13.0409 25.2564L9.37052 29.0657C9.03701 29.4101 8.7193 29.5795 8.39983 29.5795ZM15.4522 12.8079C15.6735 13.1287 15.9915 13.3014 16.3493 13.3014L19.2531 13.3064L22.1551 13.3014C22.8586 13.3014 23.3563 12.6426 23.365 11.7025C23.3702 11.2559 23.2595 10.8438 23.0539 10.5477C22.8326 10.2294 22.5146 10.0517 22.1568 10.0517H16.3493C15.6458 10.0542 15.148 10.7105 15.1394 11.6507C15.1359 12.0997 15.2466 12.5118 15.4522 12.8079ZM16.3493 20.6243C15.9915 20.6243 15.6718 20.4493 15.4523 20.1287C15.2466 19.8329 15.1359 19.4236 15.1394 18.9748C15.148 18.033 15.6458 17.3771 16.3493 17.3746H22.1552C22.513 17.3746 22.831 17.5497 23.0522 17.8702C23.2579 18.1661 23.3685 18.5779 23.3651 19.0266C23.3564 19.9635 22.8604 20.6219 22.1552 20.6243L20.6877 20.6293L16.3493 20.6243ZM15.4539 27.4587C15.6752 27.777 15.9967 27.9497 16.3579 27.9497L19.2445 27.9522L22.131 27.9497C22.8535 27.9497 23.36 27.286 23.3651 26.3384C23.3669 25.8844 23.2597 25.4896 23.054 25.196C22.8276 24.8678 22.5009 24.6975 22.1137 24.6975H16.3717C15.651 24.7 15.1428 25.3613 15.1393 26.3088C15.1376 26.7628 15.2465 27.1601 15.4539 27.4587Z" fill="url(#paint0_linear)"/>
<defs>
<linearGradient id="paint0_linear" x1="0.709382" y1="34.2314" x2="28.3007" y2="34.2314" gradientUnits="userSpaceOnUse">
<stop stop-color="#008FFF"/>
<stop offset="1" stop-color="#7C84E5"/>
</linearGradient>
</defs>
</svg>
