<svg width="74" height="74" viewBox="0 0 74 74" fill="none" xmlns="http://www.w3.org/2000/svg">
<path fill-rule="evenodd" clip-rule="evenodd" d="M0.00348835 69.3671C0.00348835 71.9619 1.55668 73.5127 4.15725 73.5127L49.6412 73.507C52.4727 73.507 53.9706 71.9994 53.9723 69.1483L53.978 40.3452L54.4228 40.3477C64.2859 40.3469 70.8199 33.4177 72.717 26.9797C74.9159 19.522 72.4649 11.5674 66.6189 7.18511C62.7799 4.30642 58.8441 2.84675 54.9229 2.84675C50.6065 2.84675 46.1892 4.613 41.7932 8.09587L41.4744 8.34796L41.4012 7.94788C41.1686 6.67524 41.1686 6.67524 39.7732 6.67524H36.5058V5.6368C36.5107 2.68005 34.4582 0.318556 31.7308 0.142907C30.254 0.0477644 28.709 -0.000213623 27.1379 -0.000213623C25.6018 -0.000213623 23.9917 0.046138 22.3507 0.136402C19.964 0.267325 18.0099 2.13847 17.5992 4.68618C17.5444 5.02415 17.5375 5.37571 17.5303 5.74802L17.5301 5.75715L17.53 5.76274C17.5268 5.94147 17.5235 6.12339 17.5147 6.3093L17.5033 6.54106H13.9561C12.9673 6.54431 12.7372 6.77282 12.7234 7.76166C12.7161 8.27988 12.7176 8.7981 12.7192 9.34245L12.7193 9.35713L12.7209 10.372L7.2498 10.3695C6.14711 10.3695 5.04443 10.3712 3.94257 10.3777C1.5396 10.3923 0.0311367 11.9089 0.00755429 14.3363C-0.00220396 15.2633 -0.000577582 16.1879 0.00186198 17.1141L0.00267517 26.6992C0.00104879 40.9218 0.000235605 55.1444 0.00348835 69.3671ZM20.1193 3.08831C20.8056 2.29383 21.8099 1.85308 22.9484 1.84657L23.5054 1.84495C24.1524 1.84495 24.7993 1.85087 25.4463 1.8568L25.662 1.85877L25.662 1.85877C26.3784 1.86609 27.0948 1.87341 27.812 1.87341C28.9082 1.87341 29.8092 1.85633 30.6468 1.81892L30.8151 1.81567C31.9504 1.81567 33.0213 2.31416 33.7556 3.18508C34.4794 4.0438 34.7705 5.14567 34.5753 6.2882L34.5404 6.49068H19.302L19.2728 6.28088C19.0988 5.05541 19.3996 3.92101 20.1193 3.08831ZM55.0489 10.0158C55.1132 10.4265 55.4693 10.5119 55.7572 10.5119L55.8206 10.5111C56.2199 10.4948 56.4346 10.3192 56.4948 9.95729C56.5188 9.81355 56.5128 9.6587 56.5064 9.49432L56.5061 9.48808C56.5029 9.40676 56.4996 9.32545 56.4996 9.24331L56.5029 9.00017H56.5078L56.5082 8.98489C56.5122 8.84768 56.5161 8.71055 56.4996 8.57569C56.459 8.23822 56.1719 8.00239 55.7401 8.00239H55.7352C55.045 8.05036 55.0278 8.43326 55.0221 8.56018V8.56024C54.9952 9.10914 54.9806 9.56452 55.0489 10.0158ZM45.2988 13.2442C45.3761 13.3076 45.5013 13.354 45.659 13.4117C45.7143 13.432 45.7729 13.454 45.8347 13.4776C45.8892 13.4394 45.9469 13.4003 46.0047 13.3621L46.0063 13.361C46.1944 13.2353 46.3887 13.1055 46.4592 12.962C46.5495 12.7807 46.5218 12.4253 46.4047 12.2578C46.1201 11.8512 45.7087 11.5032 45.3053 11.1885C45.1459 11.0632 44.9817 11.0006 44.8174 11.0006C44.6271 11.0006 44.4328 11.0892 44.2563 11.2576C43.9327 11.565 43.9148 11.887 44.2018 12.2147C44.5328 12.5936 44.9256 12.9344 45.2988 13.2442ZM63.7671 13.5117C63.5516 13.5117 63.3727 13.3727 63.2605 13.2556C62.9417 12.9246 62.9149 12.5514 63.1848 12.2049C63.4825 11.8236 63.8419 11.395 64.2558 11.1063C64.3493 11.0421 64.516 10.9998 64.6803 10.9998C64.7917 10.9998 64.8942 11.0193 64.9608 11.0535C65.1061 11.1241 65.2359 11.3209 65.3617 11.5116L65.3626 11.5129C65.4008 11.5723 65.4398 11.6308 65.4797 11.6869C65.4569 11.7471 65.4366 11.804 65.417 11.8577C65.3617 12.0147 65.317 12.1391 65.2552 12.2131C64.9665 12.5627 64.6185 12.9669 64.2225 13.3133C64.072 13.4451 63.9183 13.5117 63.7671 13.5117ZM69 23.5074L69.0113 23.5074H69.0187V23.492H69.2626C69.335 23.492 69.6798 23.5025 69.6798 23.5025C69.7497 23.5025 69.8188 23.5001 69.8871 23.4895C70.3124 23.4261 70.5117 23.187 70.5125 22.7373C70.5133 22.2998 70.3222 22.0608 69.9465 22.0274C69.7351 22.0095 69.522 21.9998 69.309 21.9998C69.0382 21.9998 68.7666 22.0152 68.499 22.0461C68.3771 22.0599 68.0062 22.1022 67.9997 22.7577C67.9965 23.161 68.1673 23.3879 68.5373 23.4733C68.6788 23.5059 68.8343 23.5066 69 23.5074ZM42.2624 23.5115C42.0103 23.5115 41.759 23.496 41.5126 23.466C41.0824 23.4123 40.9962 23.048 41.0003 22.7528C41.0076 22.1535 41.3004 22.0429 41.5541 22.0136C41.6435 22.003 41.733 21.9998 41.8233 21.9998L42.2941 22.0087L42.7267 22.0006C42.7983 22.0006 42.8706 22.003 42.9422 22.0112C43.1715 22.0347 43.4805 22.1299 43.5098 22.6772C43.5269 23.0008 43.4537 23.4009 43.0073 23.4627C42.7625 23.496 42.512 23.5115 42.2624 23.5115ZM52.9338 21.742C52.946 20.9475 53.6535 20.2514 54.4472 20.2514L54.4927 20.2522C55.288 20.2799 55.945 20.9459 55.9581 21.7379C55.9646 22.1421 55.8182 22.5178 55.5458 22.7959C55.2644 23.0829 54.8749 23.2407 54.4423 23.2423C54.017 23.2423 53.6275 23.0846 53.3461 22.7967C53.0729 22.5186 52.9265 22.1437 52.9338 21.742ZM61.5796 29.512C61.3105 29.512 61.0275 29.386 60.7624 29.1469C60.6965 29.0859 60.6314 29.0192 60.5664 28.9525L56.1947 24.6459L56.0426 24.715C55.4921 24.963 54.9302 25.0891 54.3732 25.0891C53.1103 25.0891 51.9938 24.4198 51.3855 23.2984C50.983 22.556 50.8927 21.7078 51.131 20.9093C51.3896 20.0392 52.0109 19.3024 52.8777 18.8332C53.3786 18.5624 53.4787 18.2136 53.4754 17.7728C53.4624 15.9017 53.4624 14.0322 53.4713 12.1618C53.477 11.4235 53.8104 10.9998 54.3886 10.9998C54.4829 10.9998 54.5838 11.0112 54.6879 11.0323C55.214 11.1413 55.4189 11.4682 55.4214 12.1984L55.4238 13.1645C55.4287 14.6347 55.4336 16.1066 55.4067 17.576C55.3953 18.1347 55.5238 18.5787 56.1882 18.9276C57.5478 19.6448 58.2057 21.2086 57.7528 22.6455C57.5609 23.2586 57.7479 23.5993 58.1122 23.9498C59.4743 25.2533 60.8209 26.5675 62.1147 27.858C62.3822 28.1247 62.5164 28.3866 62.5123 28.6354C62.5083 28.8517 62.3985 29.0623 62.1846 29.2607C62.0049 29.4274 61.8016 29.512 61.5796 29.512ZM44.0611 32.0971C44.1246 32.237 44.3238 32.3606 44.4702 32.4508C44.5035 32.472 44.5352 32.4915 44.5629 32.5102C45.0313 32.4826 45.7111 32.0662 46.1706 31.5206C46.4519 31.1872 46.5284 30.9367 46.5088 30.8237C46.46 30.5399 46.2128 30.1812 45.9673 30.0414C45.9502 30.0316 45.8843 29.9999 45.7363 29.9999C45.5411 29.9999 45.3208 30.0576 45.2126 30.1365C44.7833 30.452 44.388 30.8757 44.0994 31.3286C43.9839 31.5075 43.966 31.8816 44.0611 32.0971ZM64.6966 32.5127C64.5339 32.5127 64.3713 32.4492 64.2119 32.3248C63.8045 32.0069 63.3881 31.6572 63.1076 31.2579C62.9921 31.0936 62.9637 30.735 63.0515 30.5472C63.1171 30.4055 63.3076 30.2743 63.4923 30.1471L63.4923 30.1471L63.4947 30.1455C63.5492 30.1081 63.6028 30.0707 63.6541 30.0333C63.7006 30.0506 63.7449 30.0661 63.7872 30.0809C63.8121 30.0896 63.8363 30.098 63.8598 30.1064C64.0143 30.1593 64.1363 30.2016 64.2078 30.2593C64.6714 30.6431 65.0218 30.9717 65.3081 31.2929C65.5959 31.6149 65.5797 31.9369 65.2585 32.2492C65.082 32.4208 64.8877 32.5127 64.6966 32.5127ZM55.0294 34.9425C55.0717 35.4564 55.5563 35.5117 55.7629 35.5117L55.8092 35.5109C56.3866 35.4938 56.4842 35.1889 56.5045 34.9238C56.5151 34.7912 56.5126 34.6595 56.5094 34.5261H56.5005L56.5029 34.0553C56.5061 33.8967 56.5094 33.7373 56.498 33.5796C56.4704 33.2071 56.2313 33.012 55.7539 32.9998C55.51 32.9998 55.0945 33.0705 55.0392 33.5495C54.9904 33.9593 54.9879 34.4155 55.0294 34.9425ZM8.0638 34.5928H15.5289V26.9122H8.0638V34.5928ZM7.1693 36.5013C8.70622 36.5087 10.2431 36.5119 11.7793 36.5119C13.3162 36.5119 14.8523 36.5087 16.3884 36.5013C17.2553 36.4981 17.5065 36.2419 17.5098 35.3596C17.513 34.2849 17.5122 33.2094 17.5114 32.1347V32.1337L17.5106 26.1015C17.5106 25.2517 17.2788 25.0175 16.4331 25.0135C14.7498 25.0045 13.0665 24.9996 11.384 24.9996C10.0203 24.9996 8.65743 25.0029 7.29371 25.0094C6.27479 25.0151 6.00969 25.2729 6.00644 26.2658C5.99668 29.3006 5.99831 32.3362 6.00888 35.3694C6.01132 36.2118 6.30406 36.4973 7.1693 36.5013ZM22.9996 34.5952H30.4671V26.9065H22.9996V34.5952ZM21.0049 35.3092C21.0081 36.2761 21.2391 36.4997 22.2417 36.5046C23.5005 36.5095 24.7593 36.5119 26.019 36.5119C27.8039 36.5119 29.5897 36.507 31.3762 36.4989C32.2073 36.4948 32.4887 36.2436 32.4952 35.5003C32.518 32.2451 32.518 29.0558 32.4936 26.0218C32.4871 25.2834 32.1935 25.02 31.3722 25.0151C29.5653 25.0053 27.7592 24.9996 25.9523 24.9996C24.6878 24.9996 23.4225 25.0029 22.158 25.0094C21.2635 25.0143 21.0162 25.2574 21.0081 26.1405C20.9982 27.1407 20.9997 28.1415 21.0013 29.1424V29.1424V29.1424V29.1424V29.1425V29.1425V29.1425V29.1425V29.1425V29.1425V29.1426V29.1426V29.1426V29.1426V29.1426V29.1426V29.1427L21.0016 29.3307L21.0049 35.3092ZM25.0415 51.5119C24.7423 51.5119 24.4398 51.2664 24.1438 50.7825L23.2639 49.3578L23.2216 49.2894L23.2213 49.289L23.2212 49.2888L23.2211 49.2886L23.221 49.2884L23.2209 49.2882L23.2207 49.288L23.2206 49.2878L23.2205 49.2876L23.2204 49.2874L23.2203 49.2872L23.2201 49.287L23.22 49.2868L23.2199 49.2866L23.2198 49.2864L23.2197 49.2862C22.544 48.1928 21.8687 47.0999 21.2098 45.9961C20.9658 45.5871 20.9309 45.1268 21.1195 44.795C21.2529 44.56 21.4822 44.4307 21.7636 44.4307C22.0766 44.4429 22.4995 44.7202 22.7052 45.0252C23.2845 45.8861 23.815 46.7758 24.3769 47.7182L24.3901 47.7404C24.604 48.0998 25.2188 49.1212 25.2188 49.1212L31.5698 41.8415L31.5918 41.8157C31.7301 41.6534 31.8689 41.4905 32.0187 41.3422C32.2455 41.1186 32.4781 40.9999 32.6903 40.9999C32.879 40.9999 33.0612 41.091 33.2319 41.2715C33.6223 41.6797 33.6076 42.1172 33.1872 42.6084C32.3277 43.6118 31.4608 44.6071 30.5943 45.602L30.4614 45.7546C30.4614 45.7546 26.8492 49.9075 25.9441 50.9435C25.614 51.3209 25.3099 51.5119 25.0415 51.5119ZM46.4722 50.6044H38.9877V42.9637H46.4722V50.6044ZM38.4258 52.5057C37.1694 52.5049 37.0092 52.3568 37.0027 51.1891C36.9991 50.2917 36.9999 49.3931 37.0007 48.4948V48.4927L37.0011 48.108V45.3472L37.0007 44.9692V44.9671C36.9999 44.0845 36.9991 43.2014 37.0027 42.3189C37.0084 41.2829 37.28 41.0137 38.3249 41.0105C39.9733 41.004 41.6224 40.9999 43.2707 40.9999C44.5686 40.9999 45.8648 41.0023 47.1618 41.0072C48.2661 41.0121 48.5052 41.239 48.5076 42.2863C48.5117 45.2179 48.5133 48.1486 48.5117 51.081C48.5117 52.3512 48.3442 52.5114 47.0228 52.5114H45.6916C43.2699 52.5114 40.8482 52.5089 38.4258 52.5057ZM15.5337 50.6418H8.05892V42.9564H15.5337V50.6418ZM7.19695 52.5057C6.2878 52.5024 6.00969 52.2284 6.00725 51.3306C5.99994 48.3267 5.99668 45.3228 6.004 42.3181C6.00725 41.2642 6.28292 41.0064 7.41 41.004C8.50536 41.0015 9.60154 40.9999 10.6969 40.9999C12.5648 40.9999 14.4327 41.004 16.2998 41.0096C17.3203 41.0129 17.513 41.1999 17.5106 42.188L17.5114 48.0787L17.5116 48.383V48.3839V48.384V48.384V48.3841V48.3841V48.3842V48.3842V48.3843V48.3843V48.3844V48.3844C17.5124 49.4014 17.5133 50.4183 17.5073 51.4339C17.5041 52.2422 17.2366 52.5024 16.4063 52.504C14.7539 52.5097 13.1007 52.5122 11.4483 52.5122C10.0309 52.5122 8.61352 52.5097 7.19695 52.5057ZM30.4777 64.64H23.0118V56.9522H30.4777V64.64ZM22.2352 66.5104C21.2504 66.5096 21.0089 66.2754 21.004 65.3158C20.9983 64.2774 21 63.2397 21.0016 62.2021L21.0024 59.395C21.0008 58.3387 21 57.2831 21.004 56.2276C21.0065 55.2933 21.2951 55.0078 22.2384 55.0038L25.936 54.9997C27.7218 54.9997 29.5091 55.003 31.2949 55.0078C32.1658 55.0119 32.4911 55.3128 32.4968 56.1187C32.5179 59.2925 32.5171 62.4542 32.4952 65.5158C32.4887 66.2534 32.2057 66.5031 31.3722 66.5055C29.3424 66.5096 27.3119 66.512 25.2806 66.512L22.2352 66.5104ZM15.5508 64.6335H8.05404V56.9603H15.5508V64.6335ZM7.30347 66.5079C6.28618 66.5055 6.00725 66.242 6.00481 65.2816C5.99993 62.3038 5.99831 59.3267 6.00156 56.348C6.00481 55.2941 6.30081 55.0054 7.38073 55.003L10.7977 54.9997C12.6502 54.9997 14.5018 55.003 16.3534 55.0087C17.2845 55.0119 17.5122 55.2388 17.5122 56.1691L17.5114 62.1362C17.5122 63.2275 17.513 64.3188 17.5098 65.4109C17.5057 66.2591 17.2471 66.5039 16.3551 66.5055C14.5522 66.5096 12.7478 66.512 10.9441 66.512C9.73002 66.512 8.51675 66.5104 7.30347 66.5079ZM46.5243 64.6181H39.0698V56.9432H46.5243V64.6181ZM38.0826 66.5047C37.3312 66.5031 37.0222 66.2217 37.0173 65.5305C36.9937 62.3363 36.9945 59.125 37.0181 55.9837C37.0238 55.3486 37.3686 55.0225 38.0427 55.0168C39.6179 55.0062 41.193 54.9997 42.7682 54.9997C44.3425 54.9997 45.9176 55.0062 47.4928 55.0192C48.1604 55.0257 48.502 55.3787 48.5068 56.0674C48.5142 57.1571 48.5125 58.246 48.5101 59.3348V62.172C48.5125 63.2438 48.5142 64.3148 48.5068 65.3849C48.5011 66.2632 48.258 66.5031 47.3765 66.5055C45.9282 66.5096 44.4791 66.512 43.0308 66.512C41.3809 66.512 39.7317 66.5096 38.0826 66.5047ZM14.4229 14.8738L14.7872 14.9194C14.9084 14.9364 15.0182 14.9511 15.1279 14.9511L24.7276 14.9551C28.7488 14.9551 32.7684 14.9519 36.7896 14.9389C37.1385 14.9364 37.5329 14.6396 37.6996 14.3664C37.8663 14.0891 38.0005 13.7931 38.1297 13.506L38.133 13.4988C38.3213 13.0835 38.4988 12.6918 38.7616 12.3741C39.6284 11.3243 39.5732 10.1476 39.5195 9.00992L39.4959 8.4781H14.4229V14.8738ZM37.9818 21.0451C38.307 12.0529 45.8859 4.73745 54.8757 4.73745L55.0587 4.73826C59.5304 4.78543 63.7329 6.59965 66.8905 9.84833C70.1083 13.1572 71.8355 17.5175 71.7542 22.1258C71.5965 31.0603 63.9053 38.6075 54.9578 38.6075H54.6789C50.2625 38.6075 45.9144 36.725 42.7495 33.4429C39.5073 30.082 37.8142 25.6786 37.9818 21.0451ZM3.96941 12.2733C2.54958 12.2765 1.76811 13.0645 1.76811 14.4908C1.76567 32.7591 1.76567 51.0281 1.76811 69.2963C1.76892 71.1496 2.42517 71.8066 4.27517 71.8066H49.7559C51.4888 71.8066 52.1645 71.1187 52.1645 69.3541L52.1654 40.281L51.9629 40.2461C46.7495 39.3548 42.0981 36.272 39.2007 31.7889C36.3229 27.3359 35.4715 22.0559 36.8035 16.9206L36.8831 16.6157L13.7089 16.6149C12.8901 16.6149 12.651 16.3815 12.6412 15.5756C12.6321 14.9362 12.6336 14.2968 12.6352 13.6291V13.629L12.6355 13.4816L12.6372 12.2716L7.29941 12.27L3.96941 12.2733Z" fill="#222222"/>
</svg>
