<svg width="42" height="57" viewBox="0 0 42 57" fill="none" xmlns="http://www.w3.org/2000/svg">
<path d="M38.3998 49.7H3.39982C2.59982 49.7 1.79982 49.3 1.39982 48.6C0.999824 48 0.899824 47.1 1.19982 46.4L3.19982 41.1C5.19982 35.9 6.19982 30.5 6.19982 24.9V24.8C6.19982 20.3 8.19982 16.2 11.6998 13.4C15.1998 10.6 19.6998 9.5 24.1998 10.5C30.8998 11.9 35.6998 18 35.6998 25C35.6998 30.6 36.6998 36 38.6998 41.2L40.6998 46.5C40.9998 47.2 40.8998 48.1 40.3998 48.8C39.8998 49.3 39.1998 49.7 38.3998 49.7ZM20.8998 11.7C17.8998 11.7 14.9998 12.7 12.5998 14.6C9.49982 17.1 7.69982 20.8 7.69982 24.8V24.9C7.69982 30.7 6.69982 36.3 4.59982 41.7L2.59982 47C2.49982 47.3 2.49982 47.5 2.69982 47.8C2.89982 48 3.09982 48.2 3.39982 48.2H38.2998C38.5998 48.2 38.7998 48.1 38.9998 47.8C39.1998 47.6 39.1998 47.3 39.0998 47L37.0998 41.7C34.9998 36.3 33.9998 30.7 33.9998 24.9C33.9998 18.7 29.6998 13.2 23.7998 12C22.7998 11.8 21.8998 11.7 20.8998 11.7Z" fill="#222222"/>
<path d="M20.8998 55.8C17.0998 55.8 13.9998 52.7 13.9998 48.9C13.9998 48.5 14.3998 48.1 14.7998 48.1H26.9998C27.3998 48.1 27.7998 48.5 27.7998 48.9C27.8998 52.7 24.6998 55.8 20.8998 55.8ZM15.5998 49.7C15.9998 52.3 18.1998 54.2 20.8998 54.2C23.5998 54.2 25.7998 52.2 26.1998 49.7H15.5998Z" fill="#222222"/>
<path d="M17.4998 12.1C17.2998 12.1 17.0998 12 16.9998 11.9C16.7998 11.7 16.6998 11.5 16.6998 11.3V5.3C16.6998 3 18.5998 1 20.9998 1C23.2998 1 25.2998 2.9 25.2998 5.3V11.4C25.2998 11.7 25.1998 11.9 24.9998 12C24.7998 12.2 24.4998 12.2 24.2998 12.1H23.9998C23.8998 12.1 23.6998 12 23.4998 12C21.4998 11.6 19.5998 11.7 17.6998 12.2C17.5998 12.1 17.4998 12.1 17.4998 12.1ZM20.8998 2.6C19.3998 2.6 18.2998 3.8 18.2998 5.2V10.3C19.9998 10 21.7998 10 23.4998 10.3V5.3C23.4998 3.8 22.3998 2.6 20.8998 2.6Z" fill="#222222"/>
<path d="M38.3998 43.6H30.9998C30.5998 43.6 30.1998 43.2 30.1998 42.8C30.1998 42.4 30.5998 42 30.9998 42H38.3998C38.7998 42 39.1998 42.4 39.1998 42.8C39.1998 43.2 38.7998 43.6 38.3998 43.6Z" fill="#222222"/>
<path d="M11.7998 43.6H10.0998C9.69982 43.6 9.29982 43.2 9.29982 42.8C9.29982 42.4 9.69982 42 10.0998 42H11.6998C12.0998 42 12.4998 42.4 12.4998 42.8C12.5998 43.2 12.1998 43.6 11.7998 43.6Z" fill="#222222"/>
<path d="M25.7998 43.6H22.2998C21.8998 43.6 21.4998 43.2 21.4998 42.8C21.4998 42.4 21.8998 42 22.2998 42H25.7998C26.1998 42 26.5998 42.4 26.5998 42.8C26.6998 43.2 26.2998 43.6 25.7998 43.6ZM18.7998 43.6H15.2998C14.8998 43.6 14.4998 43.2 14.4998 42.8C14.4998 42.4 14.8998 42 15.2998 42H18.7998C19.1998 42 19.5998 42.4 19.5998 42.8C19.5998 43.2 19.2998 43.6 18.7998 43.6Z" fill="#222222"/>
<path d="M30.9998 43.6H29.3998C28.9998 43.6 28.5998 43.2 28.5998 42.8C28.5998 42.4 28.9998 42 29.3998 42H30.9998C31.3998 42 31.7998 42.4 31.7998 42.8C31.7998 43.2 31.3998 43.6 30.9998 43.6Z" fill="#222222"/>
<path d="M10.0998 43.6H3.39982C2.99982 43.6 2.59982 43.2 2.59982 42.8C2.59982 42.4 2.99982 42 3.39982 42H10.0998C10.4998 42 10.8998 42.4 10.8998 42.8C10.9998 43.2 10.5998 43.6 10.0998 43.6Z" fill="#222222"/>
<path d="M30.9998 43.6H38.3998C38.7998 43.6 39.1998 43.2 39.1998 42.8C39.1998 42.4 38.7998 42 38.3998 42H30.9998M30.9998 43.6C30.5998 43.6 30.1998 43.2 30.1998 42.8C30.1998 42.4 30.5998 42 30.9998 42M30.9998 43.6H29.3998C28.9998 43.6 28.5998 43.2 28.5998 42.8C28.5998 42.4 28.9998 42 29.3998 42H30.9998M30.9998 43.6C31.3998 43.6 31.7998 43.2 31.7998 42.8C31.7998 42.4 31.3998 42 30.9998 42M10.0998 43.6H11.7998C12.1998 43.6 12.5998 43.2 12.4998 42.8C12.4998 42.4 12.0998 42 11.6998 42H10.0998M10.0998 43.6C9.69982 43.6 9.29982 43.2 9.29982 42.8C9.29982 42.4 9.69982 42 10.0998 42M10.0998 43.6H3.39982C2.99982 43.6 2.59982 43.2 2.59982 42.8C2.59982 42.4 2.99982 42 3.39982 42H10.0998M10.0998 43.6C10.5998 43.6 10.9998 43.2 10.8998 42.8C10.8998 42.4 10.4998 42 10.0998 42M38.3998 49.7H3.39982C2.59982 49.7 1.79982 49.3 1.39982 48.6C0.999824 48 0.899824 47.1 1.19982 46.4L3.19982 41.1C5.19982 35.9 6.19982 30.5 6.19982 24.9V24.8C6.19982 20.3 8.19982 16.2 11.6998 13.4C15.1998 10.6 19.6998 9.5 24.1998 10.5C30.8998 11.9 35.6998 18 35.6998 25C35.6998 30.6 36.6998 36 38.6998 41.2L40.6998 46.5C40.9998 47.2 40.8998 48.1 40.3998 48.8C39.8998 49.3 39.1998 49.7 38.3998 49.7ZM20.8998 11.7C17.8998 11.7 14.9998 12.7 12.5998 14.6C9.49982 17.1 7.69982 20.8 7.69982 24.8V24.9C7.69982 30.7 6.69982 36.3 4.59982 41.7L2.59982 47C2.49982 47.3 2.49982 47.5 2.69982 47.8C2.89982 48 3.09982 48.2 3.39982 48.2H38.2998C38.5998 48.2 38.7998 48.1 38.9998 47.8C39.1998 47.6 39.1998 47.3 39.0998 47L37.0998 41.7C34.9998 36.3 33.9998 30.7 33.9998 24.9C33.9998 18.7 29.6998 13.2 23.7998 12C22.7998 11.8 21.8998 11.7 20.8998 11.7ZM20.8998 55.8C17.0998 55.8 13.9998 52.7 13.9998 48.9C13.9998 48.5 14.3998 48.1 14.7998 48.1H26.9998C27.3998 48.1 27.7998 48.5 27.7998 48.9C27.8998 52.7 24.6998 55.8 20.8998 55.8ZM15.5998 49.7C15.9998 52.3 18.1998 54.2 20.8998 54.2C23.5998 54.2 25.7998 52.2 26.1998 49.7H15.5998ZM17.4998 12.1C17.2998 12.1 17.0998 12 16.9998 11.9C16.7998 11.7 16.6998 11.5 16.6998 11.3V5.3C16.6998 3 18.5998 1 20.9998 1C23.2998 1 25.2998 2.9 25.2998 5.3V11.4C25.2998 11.7 25.1998 11.9 24.9998 12C24.7998 12.2 24.4998 12.2 24.2998 12.1H23.9998C23.8998 12.1 23.6998 12 23.4998 12C21.4998 11.6 19.5998 11.7 17.6998 12.2C17.5998 12.1 17.4998 12.1 17.4998 12.1ZM20.8998 2.6C19.3998 2.6 18.2998 3.8 18.2998 5.2V10.3C19.9998 10 21.7998 10 23.4998 10.3V5.3C23.4998 3.8 22.3998 2.6 20.8998 2.6ZM25.7998 43.6H22.2998C21.8998 43.6 21.4998 43.2 21.4998 42.8C21.4998 42.4 21.8998 42 22.2998 42H25.7998C26.1998 42 26.5998 42.4 26.5998 42.8C26.6998 43.2 26.2998 43.6 25.7998 43.6ZM18.7998 43.6H15.2998C14.8998 43.6 14.4998 43.2 14.4998 42.8C14.4998 42.4 14.8998 42 15.2998 42H18.7998C19.1998 42 19.5998 42.4 19.5998 42.8C19.5998 43.2 19.2998 43.6 18.7998 43.6Z" stroke="#222222"/>
</svg>
