<svg width="88" height="92" viewBox="0 0 88 92" fill="none" xmlns="http://www.w3.org/2000/svg">
<path fill-rule="evenodd" clip-rule="evenodd" d="M29.4791 9.07002H29.1405C25.735 9.07002 22.3295 9.07002 18.924 9.06842C18.5515 9.06842 18.5515 9.07002 18.5515 9.4309C18.5532 10.2549 18.5548 11.0788 18.5548 11.9028C18.5548 12.2022 18.5551 12.5017 18.5554 12.8011V12.8011V12.8012V12.8013V12.8014V12.8014V12.8015V12.8016V12.8017V12.8017V12.8018V12.8019V12.802V12.802C18.5563 13.6998 18.5572 14.5974 18.5499 15.4941C18.5483 15.7448 18.6257 15.8406 18.8837 15.823C19.0748 15.8083 19.2676 15.8113 19.4602 15.8142H19.4602H19.4603H19.4603H19.4604H19.4604H19.4605H19.4605H19.4606H19.4606H19.4607H19.4607H19.4608H19.4608H19.4609C19.5394 15.8154 19.618 15.8166 19.6964 15.8166C22.3831 15.817 25.07 15.8172 27.7569 15.8174L27.7951 15.8174H27.7953H27.7954H27.7956H27.7957H27.7959H27.796H27.7962H27.7963H27.7965H27.7966H27.7968H27.7969H27.7971C35.8927 15.818 43.9888 15.8186 52.0841 15.8246C52.3856 15.8246 52.4565 15.7336 52.4549 15.4494C52.4467 13.9809 52.4479 12.5124 52.4492 11.0439C52.4496 10.51 52.4501 9.97602 52.4501 9.44208C52.4501 9.07161 52.4485 9.07002 52.0663 9.07002H42.082C41.5145 9.07002 41.5048 9.06842 41.5145 8.51432C41.5467 6.59972 40.9565 4.93901 39.4941 3.6328C38.3476 2.60763 36.9819 2.09984 35.4484 2.09984C34.3278 2.10143 33.2716 2.40164 32.3235 3.01642C30.8223 3.99049 29.8774 5.34141 29.6017 7.10431C29.5341 7.53622 29.5198 7.97641 29.505 8.43315C29.4982 8.64172 29.4913 8.85375 29.4791 9.07002ZM54.4966 17.9103L54.4962 17.9104L54.496 17.9104C54.4329 17.9172 54.3795 17.9229 54.3254 17.9229C51.065 17.9245 47.8046 17.9245 44.5426 17.9229H29.9387C28.9604 17.9229 27.9821 17.9227 27.0038 17.9226H27.0036H27.0035H27.0034H27.0006C23.5775 17.922 20.1538 17.9214 16.7311 17.9277C16.4892 17.9277 16.4215 17.8622 16.4247 17.6227C16.4314 17.0689 16.4312 16.5151 16.431 15.9614V15.9612C16.4308 15.4419 16.4306 14.9227 16.436 14.4034C16.4392 14.1527 16.3618 14.0777 16.1055 14.0777C12.5146 14.0845 8.92263 14.0843 5.33147 14.0841L3.53641 14.0841C3.13491 14.0841 3.1333 14.0841 3.1333 14.4753V22.4946V42.7504V61.1204V81.4034C3.1333 82.0059 3.13346 82.6085 3.13362 83.211C3.13418 85.32 3.13473 87.4291 3.12846 89.5393C3.12846 89.8155 3.19457 89.9177 3.50094 89.9161C6.67601 89.9099 9.85107 89.9105 13.0269 89.911H13.0271H13.0273H13.0275H13.0276H13.0278H13.028H13.0282H13.0284H13.0286H13.0288H13.0289H13.0291H13.0293C13.9364 89.9112 14.8435 89.9113 15.7507 89.9113C19.5791 89.9113 23.4078 89.9109 27.2368 89.9105H27.2374H27.238H27.2386H27.2392H27.2398H27.2404H27.241H27.2416H27.2422H27.2429H27.2435H27.2441H27.2447L27.457 89.9105C31.2182 89.9101 34.9796 89.9097 38.741 89.9097C48.3287 89.9097 57.9179 89.9097 67.5071 89.9177C67.8119 89.9177 67.8748 89.8203 67.8748 89.5409C67.8694 82.1663 67.8696 74.7906 67.8699 67.4157L67.87 62.9951C67.87 61.9651 67.8712 60.9348 67.8724 59.9044C67.8736 58.8741 67.8748 57.8437 67.8748 56.8138L67.87 24.2336V24.2105C67.87 20.9495 67.87 17.69 67.8732 14.4306C67.8732 14.2166 67.8732 14.0761 67.5749 14.0777C63.347 14.0873 59.1176 14.0857 54.8897 14.0793C54.6495 14.0793 54.5705 14.1527 54.5737 14.3907C54.5817 14.9519 54.58 15.5131 54.5783 16.0749C54.5776 16.3091 54.5769 16.5435 54.5769 16.7779V17.9021L54.5302 17.9068L54.4972 17.9103L54.4966 17.9103ZM1.00809 92V91.6104V80.8669V42.15C1.00809 32.2129 1.00809 22.2758 1.00003 12.3371C0.998417 12.0497 1.06291 11.9699 1.36283 11.9715C5.30351 11.9819 9.2442 11.9827 13.184 11.9836H13.1842H13.1845H13.1847H13.1849H13.1851H13.1854H13.1856H13.1858H13.1861H13.1863H13.1865H13.1867H13.1881L15.8152 11.9842C15.9391 11.9842 16.0629 11.9774 16.1911 11.9703L16.1911 11.9703C16.2682 11.966 16.3468 11.9617 16.428 11.9587V11.6409C16.4288 10.9409 16.4292 10.2413 16.4296 9.54188C16.43 8.84207 16.4304 8.14246 16.4312 7.44284C16.4314 7.37878 16.4305 7.32316 16.4297 7.27489C16.4272 7.12057 16.426 7.04135 16.465 7.00122C16.5061 6.95888 16.592 6.96004 16.7685 6.96243H16.7685H16.7685H16.7686H16.7686H16.7686C16.8159 6.96307 16.8698 6.96379 16.931 6.96379H16.9318H16.9321H16.9324H16.9327H16.933H16.9333H16.9336H16.9339H16.9342H16.9345H16.9348H16.9351H16.9354H16.9357C20.3413 6.9622 23.7452 6.9606 27.1491 6.96858C27.3652 6.96858 27.4603 6.91589 27.4926 6.69393C27.5393 6.38255 27.6071 6.07276 27.7022 5.77256C28.61 2.91103 30.5288 1.07467 33.4377 0.245912C33.6257 0.192441 33.8149 0.142655 34.0046 0.0927443L34.0047 0.0927221L34.0049 0.0926582L34.0049 0.0926477C34.121 0.0621032 34.2373 0.0315115 34.3536 0H36.6755C36.7044 0.0123211 36.7331 0.0264676 36.7619 0.0406554L36.7619 0.0406594C36.8264 0.0724392 36.8913 0.104426 36.9593 0.116569C38.812 0.455098 40.3632 1.32378 41.6144 2.71781C42.6416 3.86434 43.264 5.20568 43.5268 6.7099C43.5719 6.96539 43.6655 7.07398 43.9315 6.98455C43.9998 6.96247 44.0777 6.96305 44.1538 6.96362L44.1895 6.96379C45.8463 6.963 47.5035 6.963 49.1609 6.963C50.8183 6.963 52.4759 6.963 54.1335 6.9622C54.3546 6.9622 54.4659 6.9622 54.5219 7.01782C54.5785 7.07414 54.5785 7.18747 54.5785 7.41555V7.42049C54.578 7.86355 54.5785 8.30661 54.5789 8.74967V8.75491C54.5799 9.71851 54.5809 10.6821 54.5721 11.6457C54.5689 11.9156 54.6479 11.981 54.9107 11.981C59.1059 11.9756 63.2987 11.9771 67.4921 11.9787H67.4926H67.493H67.4935H67.4939H67.4944H67.4948H67.4953H67.4957H67.4962H67.4966H67.4971H67.4975H67.4979L69.5969 11.9794C69.9952 11.9794 69.9984 11.9795 69.9984 12.3866C70 15.8262 70 19.2674 70 22.7086C70 25.9699 69.9996 29.232 69.9992 32.4944C69.9988 35.7571 69.9984 39.02 69.9984 42.2826L69.9986 47.0352C69.9989 51.7951 69.9992 56.5548 69.9968 61.3136C69.9968 61.5633 69.9845 61.8129 69.9722 62.0627L69.9722 62.063C69.9618 62.275 69.9514 62.4872 69.9484 62.6997C69.9467 62.8165 69.9596 62.9338 69.9725 63.051C69.9846 63.1613 69.9968 63.2716 69.9968 63.3815C69.9992 70.4276 69.9989 77.4736 69.9986 84.5196L69.9984 91.5545V91.9808L1.00809 92ZM85.919 43.1961L85.9185 43.0772C85.9175 42.836 85.9165 42.5946 85.9209 42.3539C85.9241 42.1557 85.8486 42.0885 85.652 42.0933C85.078 42.1045 84.504 42.1045 83.9284 42.0933C83.7129 42.0885 83.628 42.1541 83.6312 42.3859C83.6437 43.0446 83.6406 43.7049 83.6296 44.3652C83.628 44.5698 83.7035 44.6322 83.8938 44.6306C84.4961 44.6226 85.1 44.6242 85.7008 44.6306C85.8753 44.6322 85.9304 44.5634 85.9257 44.3908C85.9189 44.1522 85.9202 43.9128 85.9215 43.6738V43.6733V43.6731V43.673V43.6728V43.6726C85.922 43.5773 85.9225 43.4819 85.9225 43.3867H85.9194L85.9193 43.3301L85.919 43.1961ZM79.8143 84.2148C79.836 84.1848 79.855 84.1594 79.8718 84.1368C79.9088 84.0873 79.9353 84.0518 79.9558 84.0134C80.069 83.7831 80.1822 83.5529 80.2955 83.3228L80.2958 83.3221L80.2963 83.3211L80.2968 83.32L80.2973 83.319L80.2978 83.318L80.2983 83.3169L80.2988 83.3159L80.2993 83.3149L80.2998 83.3139L80.3003 83.3128L80.3008 83.3118L80.3013 83.3108L80.3018 83.3097L80.3023 83.3087C80.697 82.5068 81.0914 81.7053 81.4782 80.899C81.5284 80.7943 81.5377 80.6684 81.5469 80.5438C81.5498 80.5046 81.5527 80.4655 81.5568 80.4273C81.5725 80.2738 81.5018 80.2035 81.3414 80.2051C80.9839 80.2062 80.6264 80.2064 80.2689 80.2065C79.6262 80.2067 78.9835 80.2069 78.3407 80.2131C78.27 80.2131 78.1426 80.2914 78.1379 80.3426L78.1368 80.3528C78.1197 80.5184 78.0999 80.71 78.1662 80.8494C78.5685 81.6929 78.9826 82.5309 79.4071 83.3899C79.5418 83.6625 79.6776 83.9372 79.8143 84.2148ZM79.8442 44.6274C79.9915 44.6274 80.1386 44.627 80.2857 44.6265C80.6286 44.6255 80.9712 44.6245 81.3146 44.629C81.4908 44.6322 81.5663 44.573 81.5647 44.3796C81.5552 43.7097 81.5521 43.0382 81.5631 42.3683C81.5663 42.1461 81.4766 42.0917 81.2769 42.0933C80.316 42.0997 79.3551 42.1013 78.3942 42.0917C78.1835 42.0901 78.1127 42.1685 78.1158 42.3779C78.1253 43.0382 78.1268 43.7001 78.1158 44.3604C78.1111 44.5858 78.2055 44.6354 78.4021 44.6306C78.745 44.6237 79.0879 44.625 79.4303 44.6263H79.4305H79.4307H79.4309H79.4311H79.4313H79.4315H79.4317H79.4319H79.4321H79.4323H79.4325H79.4327H79.433H79.4332H79.4335C79.5705 44.6269 79.7074 44.6274 79.8442 44.6274ZM79.8442 39.9877C79.9878 39.9877 80.1313 39.9867 80.2748 39.9856H80.275H80.2751H80.2753H80.2754H80.2756H80.2758H80.2759H80.2761H80.2762H80.2764H80.2766H80.2767H80.2769C80.6039 39.9833 80.9306 39.9809 81.258 39.9909C81.4955 39.9989 81.5647 39.9126 81.5631 39.6776C81.558 39.1788 81.5589 38.6805 81.5598 38.1825V38.1797V38.1796V38.1795V38.1794V38.1793V38.1792V38.1791V38.179V38.1789V38.1788V38.1787V38.1786V38.1785C81.5605 37.7583 81.5613 37.3382 81.5584 36.9181C81.5537 36.4048 81.3634 35.9524 80.9875 35.6166C80.4497 35.1338 79.8159 34.9915 79.1507 35.3065C78.5027 35.615 78.1316 36.1538 78.1206 36.8941C78.1125 37.4312 78.1146 37.9678 78.1168 38.5045C78.1185 38.9071 78.1201 39.3098 78.1174 39.7127C78.1158 39.9286 78.1976 39.9941 78.4021 39.9909C78.7441 39.9841 79.087 39.9854 79.4301 39.9867H79.4302H79.4303H79.4305H79.4306H79.4307H79.4308H79.4309H79.431H79.4311H79.4313H79.4314H79.4315H79.4316C79.5691 39.9872 79.7066 39.9877 79.8442 39.9877ZM81.5584 62.4282L81.5583 60.2426V60.2282C81.5581 55.8582 81.5579 51.4883 81.5647 47.1183C81.5647 46.8433 81.4939 46.7506 81.2171 46.7538C80.3018 46.7682 79.3865 46.7666 78.4713 46.7538C78.2102 46.7506 78.1111 46.8145 78.1127 47.1055C78.1253 49.1503 78.1253 51.192 78.119 53.2352C78.1167 53.6975 78.1065 54.1601 78.0963 54.6227C78.0857 55.1073 78.075 55.592 78.0734 56.0763C78.0717 56.395 78.0839 56.7142 78.0961 57.0333C78.1072 57.3225 78.1182 57.6117 78.119 57.9005C78.1221 64.4902 78.1206 71.0798 78.119 77.6679V77.6982C78.119 78.0963 78.1206 78.0979 78.5074 78.0979H81.1684C81.5584 78.0979 81.5584 78.0963 81.5584 77.7078V62.4282ZM79.8175 89L79.201 87.7486L79.1932 87.7328C78.8113 86.9578 78.4357 86.1954 78.0608 85.4331C77.9062 85.1188 77.751 84.8048 77.5958 84.4906L77.5951 84.4893L77.595 84.489L77.5949 84.4888L77.5948 84.4886L77.5947 84.4883L77.5946 84.4881L77.5945 84.4879L77.5943 84.4876L77.5942 84.4874L77.5941 84.4872L77.594 84.487L77.5939 84.4867L77.5938 84.4865C77.1402 83.5684 76.6864 82.6501 76.2475 81.7255C76.1296 81.4777 76.0557 81.182 76.0541 80.907C76.0458 74.4769 76.046 68.0456 76.0462 61.6152L76.0462 58.8613L76.046 56.5092C76.0455 53.3731 76.045 50.2372 76.0525 47.1023C76.0541 46.8145 75.9629 46.7458 75.6987 46.7538C75.3104 46.7674 74.9214 46.7649 74.5225 46.7623C74.3607 46.7612 74.1973 46.7602 74.0316 46.7602V44.6386H76.0462V43.4539L76.0461 43.368L76.0455 43.1635C76.0446 42.9053 76.0436 42.6472 76.0494 42.3891C76.0557 42.1749 75.9912 42.0821 75.7584 42.0901C75.4866 42.1005 75.2143 42.0992 74.9423 42.0978H74.9422H74.9421H74.942H74.9419H74.9418H74.9418H74.9417H74.9416H74.9415H74.9414H74.9413H74.9412H74.9411C74.7131 42.0966 74.4853 42.0955 74.2581 42.1013C74.0552 42.1077 73.997 42.0326 74.0018 41.8359C74.0128 41.3083 74.0159 40.7807 74.0002 40.2531C73.9955 40.0277 74.0788 39.9781 74.2817 39.9829C74.4842 39.9877 74.6873 39.986 74.8905 39.9843H74.8906H74.8907H74.8907H74.8908H74.8909H74.8909H74.891H74.8911H74.8911H74.8912H74.8913H74.8913H74.8914C75.1597 39.982 75.4281 39.9798 75.6955 39.9925C75.9692 40.0053 76.0572 39.9222 76.0525 39.6424C76.0368 38.7023 76.0289 37.7606 76.0494 36.8221C76.084 35.2058 76.8483 34.0243 78.2762 33.3736C79.7121 32.7197 81.1055 32.9275 82.3227 33.9715C83.2191 34.7389 83.6343 35.7493 83.6359 36.9356C83.6359 37.1881 83.6367 37.4406 83.6376 37.693C83.6398 38.3423 83.642 38.9915 83.6296 39.6408C83.6249 39.927 83.7224 39.9957 83.9881 39.9925C84.6213 39.9859 85.2544 39.9861 85.8875 39.9863C86.481 39.9865 87.0746 39.9867 87.6682 39.9813C87.9277 39.9781 88 40.0581 88 40.3219C87.9937 47.2206 87.9937 54.1178 87.9984 61.0165C87.9984 61.2515 87.9402 61.3363 87.7012 61.3283C87.2105 61.3123 86.7183 61.3091 86.2292 61.3299C85.976 61.3395 85.9162 61.2547 85.9162 61.0037C85.923 57.0846 85.9228 53.1667 85.9226 49.2489V49.236L85.9225 47.275L85.9228 47.1715V47.1714C85.9236 46.944 85.924 46.8405 85.8728 46.7942C85.8299 46.7555 85.7511 46.7568 85.6062 46.7591H85.6059H85.6056C85.5551 46.7599 85.4965 46.7608 85.4287 46.7602C85.246 46.7583 85.0634 46.7597 84.8811 46.7611C84.5816 46.7634 84.2825 46.7657 83.9834 46.7538C83.7145 46.7458 83.6296 46.8289 83.6296 47.1135C83.6363 53.381 83.6361 59.6497 83.6359 65.9175V65.9381L83.6359 69.0728L83.6361 71.4659C83.6366 74.6588 83.6371 77.8516 83.6296 81.0445C83.6296 81.2539 83.5541 81.4777 83.4613 81.668C82.4427 83.7544 81.4181 85.8358 80.3939 87.9167L80.3935 87.9174L79.9558 88.8065C79.9378 88.8423 79.9126 88.8748 79.8801 88.9169C79.8616 88.9407 79.8408 88.9676 79.8175 89ZM17.8722 48.0862C21.7859 48.0453 24.896 51.1287 24.896 54.9645C24.9527 58.6932 21.8802 61.923 17.9949 61.912C14.1347 61.9009 11.0025 58.7703 11.0922 54.8165C11.1755 51.1193 14.1882 48.1256 17.8722 48.0862ZM26.9999 55.0101C27.025 50.0584 22.9935 46.0007 18.1018 46.0023C13.0545 45.8874 8.8012 50.1355 9.00718 55.3674C9.18958 60.0295 13.045 64.0714 18.1411 63.999C23.0123 63.9298 26.9763 60.009 26.9999 55.0101ZM24.8989 33.0197C24.9509 29.2451 21.8174 26.1783 18.1787 26.0933C14.3102 26.0037 11.098 29.1114 11.0791 32.9646C11.0586 36.7801 14.1937 39.9161 17.9977 39.913C21.8536 39.9082 24.9383 36.7093 24.8989 33.0197ZM9.00007 32.9725C8.98118 28.152 12.8654 23.9906 18.0118 24C22.9537 24.0095 27.0031 27.9271 27 33.0039C26.9969 38.0273 23.0119 42.0079 17.9772 42C12.9205 41.9953 8.98276 37.9156 9.00007 32.9725ZM24.9003 76.6458C25.0954 80.6927 21.8264 83.9025 18.0001 83.9261C14.1519 83.8836 11.1803 80.8595 11.0795 77.2012C10.9709 73.2661 14.1172 70.1129 17.9372 70.0893C21.8075 70.0641 24.7319 73.1717 24.9003 76.6458ZM9.00509 77.3964C9.15147 82.0773 13.0407 86.0093 17.9844 85.9999C22.8778 86.0219 26.9763 82.1135 26.9999 77.0486C27.0235 71.9428 22.936 68.0848 18.1575 68.0014C13.2547 67.9164 8.82881 71.7996 9.00509 77.3964ZM45.9986 30.9968H32.3977C32.0023 30.9968 32.0007 30.9968 32.0007 30.6397C31.9996 30.354 32 30.0684 32.0004 29.7827C32.0005 29.6398 32.0007 29.497 32.0007 29.3542V29.3541C32.0015 29.1804 32.0019 29.0919 32.0463 29.0468C32.0925 29 32.1861 29 32.3769 29C35.3737 29.0015 38.3705 29.003 41.3673 29.003C44.3929 29.003 47.4185 29.0026 50.4441 29.0023C53.4698 29.0019 56.4954 29.0015 59.521 29.0015C59.5693 29.0015 59.6127 29.0011 59.6516 29.0006C59.8224 28.9988 59.9088 28.9979 59.9525 29.0407C59.9972 29.0845 59.997 29.1742 59.9965 29.3559V29.3564V29.357L59.9964 29.3859L59.9964 29.4538C59.9964 29.5799 59.9957 29.7059 59.9951 29.8319C59.9934 30.1344 59.9917 30.4369 59.9996 30.7394C60.006 30.9388 59.9276 31.0043 59.7147 30.9998C59.3293 30.9924 58.9424 30.994 58.5556 30.9955C58.3944 30.9962 58.2332 30.9968 58.0722 30.9968H45.9986ZM43.7097 52.9954L45.9823 52.9955V52.994L48.2559 52.9939C52.0494 52.9937 55.8437 52.9935 59.6368 52.9985C59.9057 52.9985 60.0145 52.9427 59.9985 52.6712C59.9813 52.3749 59.9846 52.0771 59.9879 51.7794C59.9892 51.6603 59.9905 51.5413 59.9905 51.4223L59.9905 51.418C59.9921 51.0061 59.9921 51.0046 59.5392 51.0046H52.2215C47.5457 51.0061 42.8699 51.0076 38.1925 51.0076C36.2339 51.0076 34.2752 51.0076 32.3166 51C32.0862 50.9985 31.9934 51.0513 32.003 51.2866C32.0206 51.7466 32.0238 52.2097 32.0014 52.6697C31.987 52.9382 32.0862 53 32.3566 53C36.1405 52.995 39.9254 52.9952 43.7097 52.9954ZM46.006 73.0016H59.5182C59.5344 73.0016 59.5506 73.0018 59.5668 73.0021L59.6142 73.0032C59.6693 73.0046 59.7237 73.006 59.7775 73.0031C59.9375 72.9956 60 73.0621 59.9984 73.2132C59.9936 73.7393 59.9903 74.2653 60 74.7914C60.0029 75.0031 59.8681 75.001 59.7294 74.9989C59.7155 74.9987 59.7016 74.9985 59.6878 74.9985C58.3529 75 57.0181 75 55.6832 75H32.6155C32.3039 75 32.1516 75 32.077 74.9238C32.0056 74.8509 32.0056 74.7081 32.0056 74.4286V74.4241C32.0056 74.3112 32.0068 74.1982 32.0079 74.0854C32.0106 73.8174 32.0132 73.5497 32.0008 73.2828C31.9912 73.0666 32.0633 72.9971 32.2921 73.0001C32.9356 73.0053 33.5797 73.004 34.2241 73.0027H34.2243H34.2244H34.2246H34.2247H34.2248H34.225H34.2251C34.5118 73.0022 34.7985 73.0016 35.0852 73.0016H46.006ZM34.8476 35.006H33.0052C33.0052 35.1814 33.0062 35.3528 33.0071 35.5214V35.5214V35.5214V35.5215V35.5215V35.5215V35.5216C33.0094 35.9212 33.0115 36.3045 33.0005 36.687C32.9926 36.9359 33.0821 37 33.3382 37C36.6265 36.9936 39.9161 36.9938 43.2047 36.994L44.8468 36.994L46.3671 36.9937C48.1415 36.9932 49.9165 36.9927 51.6904 36.9985C51.9229 37 52.0046 36.9404 51.9952 36.7154C51.9795 36.2593 51.9732 35.8018 51.9983 35.3473C52.0124 35.0805 51.9418 34.9985 51.6449 35C46.8457 35.0064 42.0476 35.0062 37.2487 35.006H37.2487H37.2486H37.2485H37.2485H37.2484H37.2483L34.8476 35.006ZM42.4858 58.9985H33.379C33.1888 58.9985 33.0958 58.9985 33.0502 58.9519C33.0066 58.9074 33.0066 58.8201 33.0066 58.6492C33.0061 58.5006 33.0069 58.3522 33.0077 58.2039C33.0094 57.889 33.011 57.5748 33.0003 57.2613C32.9941 57.0527 33.0758 56.9847 33.2784 57.0028C33.3687 57.01 33.459 57.0081 33.5493 57.0061L33.6176 57.0048C33.6365 57.0045 33.6555 57.0043 33.6744 57.0043C39.6419 57.0043 45.6109 57.0043 51.5784 57.0028C51.7908 57.0028 51.8949 57.0028 51.9459 57.0548C51.9948 57.1047 51.9948 57.2026 51.9948 57.3944C51.9948 57.524 51.9938 57.6536 51.9929 57.7833C51.9906 58.0981 51.9884 58.413 51.9995 58.7278C52.0073 58.9471 51.9256 59.0015 51.7057 59C49.2467 58.9963 46.7878 58.9966 44.3288 58.9968L42.4858 58.9969V58.9985ZM49.8279 79.003H41.599H40.1848L38.9364 79.0041C37.062 79.0058 35.1883 79.0074 33.3136 79C33.0559 78.9985 32.9914 79.074 33.0009 79.3081C33.0141 79.619 33.0111 79.9298 33.0081 80.2402V80.2405V80.2407C33.0069 80.3734 33.0056 80.506 33.0056 80.6385C33.0056 80.9964 33.0056 80.9979 33.367 80.9979C38.0337 80.9994 42.7005 81.0009 47.3657 80.9994C47.729 80.9986 48.0924 80.9922 48.4558 80.9858C48.842 80.979 49.2281 80.9722 49.6142 80.9722C49.966 80.9715 50.3178 80.9768 50.6697 80.9821C51.0422 80.9877 51.4147 80.9934 51.7873 80.9918C51.8564 80.9918 51.9837 80.8801 51.9868 80.8167C52.0041 80.273 52.0041 79.7294 51.9884 79.1873C51.9868 79.1238 51.8596 79.0121 51.7888 79.0106C51.2894 79.0002 50.7899 79.0013 50.2904 79.0024H50.2894L50.1963 79.0026C50.0735 79.0028 49.9507 79.003 49.8279 79.003ZM35.0007 7.00083C35.1379 7.00083 35.2739 7.00062 35.4089 7.00041C35.8995 6.99965 36.3773 6.99891 36.8542 7.00841C36.9038 7.00993 36.9912 7.11754 36.9927 7.17816C36.9993 7.5302 36.9992 7.88287 36.9991 8.23535C36.999 8.42767 36.999 8.61994 37 8.81203C37 8.95298 36.9446 9.00148 36.8104 8.99997C36.6132 8.99831 36.4161 8.99826 36.2191 8.99821C35.8743 8.99813 35.5297 8.99804 35.1844 8.98936C35.1217 8.98936 35.0109 8.88478 35.0094 8.82718C34.999 8.35048 34.9996 7.87378 35.0003 7.37935L35.0004 7.37481C35.0005 7.25135 35.0007 7.12678 35.0007 7.00083ZM13.7439 55.3256L13.7396 55.3298C13.4947 55.563 13.2501 55.7959 13 56.0344L13.0278 56.0649L13.0454 56.0844L13.0455 56.0845C13.0759 56.1183 13.105 56.1508 13.1364 56.1818C13.3931 56.4274 13.6503 56.6726 13.9077 56.9179C14.5835 57.5621 15.2597 58.2068 15.9267 58.8595C16.1113 59.0406 16.2091 59.0514 16.4017 58.8641C17.4807 57.8203 18.5675 56.7832 19.6545 55.746L19.6548 55.7457L19.6552 55.7454C20.039 55.3792 20.4228 55.013 20.8063 54.6465C21.1489 54.3171 21.4923 53.9885 21.8357 53.6598L21.8383 53.6574L21.8396 53.6561C22.1817 53.3289 22.5237 53.0016 22.8649 52.6735C22.8771 52.6616 22.8903 52.65 22.9036 52.6383C22.9809 52.5701 23.0588 52.5013 22.9355 52.3834C22.6399 52.0965 22.3449 51.8083 22.0367 51.5072L22.0362 51.5068L22.0359 51.5065L21.7298 51.2075L21.5171 51C21.3677 51.1478 21.2233 51.2925 21.0815 51.4347L21.0814 51.4348L21.0813 51.4349C20.827 51.6897 20.581 51.9362 20.3297 52.1776C19.7041 52.7799 19.0767 53.3807 18.4492 53.9817C17.7521 54.6493 17.055 55.317 16.36 55.9868C16.2011 56.1404 16.1016 56.145 15.9412 55.9822C15.6663 55.7023 15.3793 55.4314 15.0922 55.1606L15.0921 55.1605C14.9888 55.063 14.8855 54.9655 14.7827 54.8675C14.723 54.8114 14.6622 54.7569 14.6051 54.7057L14.6049 54.7055C14.5668 54.6714 14.5304 54.6387 14.4971 54.6081C14.2422 54.8512 13.9938 55.0877 13.7458 55.3239L13.7439 55.3256ZM16.0903 36.9586L16.0901 36.9584C16.0511 36.9308 16.0153 36.9054 15.9847 36.8751C15.6638 36.5685 15.3432 36.2615 15.0226 35.9545L15.0221 35.9541L15.0219 35.9539C14.3802 35.3394 13.7382 34.7247 13.0927 34.112C12.967 33.9933 12.9702 33.9131 13.0959 33.7959C13.4971 33.4228 13.8966 33.045 14.2817 32.658C14.4316 32.5084 14.5266 32.5423 14.6587 32.6719C14.8415 32.8521 15.0276 33.0292 15.2137 33.2063L15.214 33.2065C15.4593 33.44 15.7047 33.6736 15.9429 33.9146C16.1072 34.0796 16.2006 34.058 16.3569 33.9069C17.5236 32.7828 18.6935 31.6633 19.8637 30.5436L19.8645 30.5428L19.8683 30.5392C20.3354 30.0923 20.8025 29.6453 21.2695 29.198L21.2741 29.1935C21.4085 29.0649 21.4762 29.0001 21.544 29C21.6128 28.9999 21.6817 29.0666 21.8204 29.2009L21.8253 29.2057L22.0015 29.3769L22.0016 29.377C22.2952 29.6627 22.5888 29.9484 22.8935 30.2233C23.0434 30.3621 23.0289 30.45 22.8887 30.5841C21.4255 31.9803 19.9652 33.3778 18.5049 34.7753L18.5029 34.7772C17.7721 35.4766 17.0413 36.1759 16.3102 36.8751C16.2783 36.9056 16.2427 36.9311 16.2039 36.9589C16.1858 36.9718 16.167 36.9853 16.1475 37C16.1279 36.9852 16.1087 36.9716 16.0903 36.9586ZM15.7356 76.4063C15.9446 76.6115 16.1584 76.8214 16.3812 77.0404C16.3362 77.0764 16.298 77.1051 16.2648 77.1301C16.2157 77.1671 16.1773 77.196 16.143 77.2284C16.0057 77.3625 15.8682 77.4965 15.7307 77.6305C15.1799 78.1674 14.6289 78.7045 14.0854 79.247C14.0263 79.3063 13.9773 79.4696 14.0111 79.5059C14.3842 79.904 14.7668 80.2929 15.1547 80.6871C15.2569 80.791 15.3594 80.8952 15.4622 81C15.4979 80.9677 15.5307 80.9381 15.5614 80.9105C15.6701 80.8125 15.7507 80.7399 15.8271 80.6652C15.9713 80.5248 16.1158 80.3847 16.2604 80.2446C16.756 79.7641 17.2518 79.2834 17.7344 78.7918C17.9202 78.6054 18.0266 78.6269 18.1973 78.7984C18.5658 79.1724 18.943 79.5395 19.3202 79.9066C19.467 80.0494 19.6137 80.1922 19.7599 80.3354C19.8973 80.4685 20.036 80.6003 20.1653 80.7231C20.2427 80.7966 20.3167 80.8669 20.385 80.9324C20.9357 80.4014 21.4577 79.8984 22 79.3772C21.5705 78.9624 21.1374 78.5437 20.6998 78.1205C20.3303 77.7632 19.9575 77.4027 19.5809 77.0388C19.6088 77.0073 19.6353 76.9772 19.6608 76.9481C19.737 76.8611 19.8048 76.7839 19.8782 76.7122C20.2067 76.3907 20.5365 76.0692 20.8663 75.7477C21.1962 75.426 21.5261 75.1044 21.8547 74.7827C21.8656 74.7719 21.8771 74.7612 21.8886 74.7504C21.9708 74.674 22.056 74.5947 21.9257 74.4661C21.6298 74.1722 21.3351 73.8764 21.0387 73.5787C20.8527 73.392 20.6661 73.2046 20.4779 73.0165C20.4402 73.0496 20.4082 73.0772 20.3798 73.1016C20.3318 73.143 20.2944 73.1752 20.2583 73.2094C20.1091 73.3547 19.9599 73.4998 19.8107 73.6449C19.2636 74.1768 18.7169 74.7084 18.1753 75.2461C18.025 75.3946 17.9253 75.4292 17.7597 75.2544C17.5557 75.0367 17.3398 74.8286 17.124 74.6205C16.9932 74.4944 16.8624 74.3683 16.7343 74.2402C16.4712 73.979 16.211 73.7143 15.9423 73.441C15.8004 73.2967 15.6561 73.1499 15.5078 73C15.3994 73.1076 15.2928 73.2129 15.1879 73.3166C14.7797 73.7203 14.3962 74.0995 14.0212 74.4892C13.9807 74.5304 14.006 74.6953 14.0584 74.7497C14.2874 74.9905 14.5267 75.223 14.7658 75.4555C14.8495 75.5368 14.9331 75.618 15.0162 75.6996C15.2538 75.9333 15.4914 76.1666 15.7356 76.4063Z" fill="#222222"/>
</svg>
