<svg width="35" height="40" viewBox="0 0 35 40" fill="none" xmlns="http://www.w3.org/2000/svg">
<path fill-rule="evenodd" clip-rule="evenodd" d="M0.422743 36.8276C0.90495 38.3012 2.29174 39.2906 3.87422 39.2906L17.2528 39.292L30.6321 39.2906C32.6377 39.2906 34.2702 37.7061 34.2702 35.7581C34.2723 28.0266 34.2723 20.2952 34.2709 12.5638C34.2702 10.6136 32.6286 9.02641 30.6103 9.02641L5.3666 9.02162C4.59366 9.02093 3.89675 8.72375 3.40468 8.18418C2.91333 7.64597 2.69229 6.93863 2.7838 6.19432C2.99358 4.48588 4.10864 3.32867 5.84247 3.02054C5.99875 2.99383 6.1684 2.99109 6.35917 2.99109L30.6026 2.98972C31.3255 2.98972 31.7409 3.39714 31.7416 4.10859L31.7423 4.89399C31.7437 5.93754 31.7444 6.98108 31.7374 8.02463C31.7345 8.38686 31.8979 8.61967 32.2505 8.75936C32.5898 8.89289 32.9207 9.04832 33.2523 9.20581L33.6803 9.4037L34.2244 9.5879L34.2631 9.01819C34.2667 8.97163 34.2709 8.90042 34.2709 8.82852V4.01684C34.2702 2.23788 32.9313 0.773212 31.1369 0.545878L31.0151 0.5L5.98185 0.508902C5.85349 0.534383 5.72392 0.556308 5.55344 0.585153L5.55344 0.585154L5.51443 0.591755C5.16879 0.648589 4.7781 0.712955 4.40993 0.841686C2.06788 1.66475 0.683205 3.29991 0.307295 5.66022L0.239716 5.83483L0.252387 36.2011L0.301663 36.3908L0.308254 36.4167L0.308261 36.4167C0.343329 36.5546 0.378361 36.6923 0.422743 36.8276ZM30.5378 36.8612C26.0649 36.8523 21.5913 36.8482 17.1184 36.8482C12.7356 36.8482 8.35277 36.8523 3.96714 36.8605C3.64051 36.8605 3.33288 36.7359 3.10128 36.5099C2.87039 36.2853 2.74367 35.9895 2.74438 35.6779C2.75705 29.3468 2.75634 23.0164 2.75494 16.6853L2.75423 10.7259C3.33922 11.1053 3.97559 11.3402 4.68869 11.4408C4.8499 11.4627 5.01392 11.473 5.17724 11.473L26.2458 11.4771C27.6833 11.4771 29.1215 11.473 30.5723 11.4572C30.8856 11.4572 31.1833 11.5791 31.4107 11.8003C31.6444 12.0283 31.7726 12.3289 31.7718 12.648C31.7542 20.3801 31.7542 28.1225 31.7726 35.6588C31.7733 35.9799 31.6458 36.2826 31.4135 36.5085C31.1805 36.7359 30.8694 36.8612 30.5378 36.8612Z" fill="url(#paint0_linear)"/>
<defs>
<linearGradient id="paint0_linear" x1="0.697923" y1="39.0309" x2="34.2719" y2="39.0309" gradientUnits="userSpaceOnUse">
<stop stop-color="#008FFF"/>
<stop offset="1" stop-color="#7C84E5"/>
</linearGradient>
</defs>
</svg>
