<svg width="55" height="55" viewBox="0 0 55 55" fill="none" xmlns="http://www.w3.org/2000/svg">
<path d="M14.8 38.1C14.6 38.1 14.3 38 14.2 37.8C11.8 34.8 10.5 31.2 10.5 27.3C10.5 18 18 10.5 27.3 10.5C34.2 10.5 40.5 14.8 43 21.2C43.2 21.6 43 22.1 42.5 22.2C42.1 22.4 41.6 22.2 41.5 21.7C39.3 15.9 33.6 12 27.4 12C19 12 12.2 18.8 12.2 27.2C12.2 30.7 13.4 34 15.6 36.7C15.9 37 15.8 37.6 15.5 37.8C15.2 38 15 38.1 14.8 38.1Z" fill="#222222"/>
<path d="M39.7 38.1C39.5 38.1 39.3 38 39.2 37.9C38.9 37.6 38.8 37.1 39.1 36.8C39.4 36.4 39.7 36 40 35.6C40.2 35.2 40.7 35.1 41.1 35.4C41.5 35.6 41.6 36.1 41.3 36.5C41 37 40.7 37.4 40.3 37.9C40.2 38 39.9 38.1 39.7 38.1Z" fill="#222222"/>
<path d="M41.9 34.4C41.8 34.4 41.7 34.4 41.6 34.3C41.2 34.1 41 33.6 41.2 33.2C41.5 32.4 41.8 31.6 42 30.8C42.1 30.4 42.5 30.1 43 30.2C43.4 30.3 43.7 30.7 43.6 31.2C43.4 32.1 43.1 33 42.7 33.9C42.5 34.2 42.2 34.4 41.9 34.4ZM43.2 29.2C42.7 29.2 42.4 28.8 42.4 28.3C42.4 27.9 42.4 27.6 42.4 27.2C42.4 26.7 42.4 26.2 42.3 25.7C42.3 25.3 42.6 24.9 43 24.8C43.4 24.8 43.8 25.1 43.9 25.5C44 26 44 26.6 44 27.1C44 27.5 44 27.9 44 28.3C44 28.9 43.6 29.2 43.2 29.2Z" fill="#222222"/>
<path d="M42.7 23.9C42.3 23.9 42 23.7 41.9 23.3C41.8 22.8 41.6 22.3 41.4 21.8C41.2 21.4 41.4 20.9 41.9 20.7C42.3 20.5 42.8 20.7 43 21.2C43.2 21.7 43.4 22.3 43.5 22.8C43.6 23.2 43.4 23.7 42.9 23.8C42.8 23.9 42.8 23.9 42.7 23.9Z" fill="#222222"/>
<path d="M46.3 45.1C46.1 45.1 45.9 45 45.7 44.9C45.4 44.6 45.4 44.1 45.7 43.8L47.2 42.3C47.3 42.2 47.3 41.9 47.2 41.8L44.3 38.9C43.9 38.5 43.8 37.8 44.1 37.2C45 35.7 45.7 34 46.1 32.3C46.3 31.7 46.8 31.3 47.4 31.3H51.5C51.7 31.3 51.8 31.1 51.8 31V23.9C51.8 23.7 51.6 23.6 51.5 23.6H47.4C46.8 23.6 46.2 23.2 46.1 22.6C45.7 20.9 45 19.2 44.1 17.7C43.8 17.2 43.9 16.5 44.3 16L47.2 13.1C47.3 13 47.3 12.9 47.3 12.9C47.3 12.9 47.3 12.7 47.2 12.7L42.2 7.7C42.1 7.3 42 7.2 42 7.2C41.9 7.2 41.8 7.2 41.8 7.3L38.9 10.2C38.5 10.6 37.8 10.7 37.2 10.4C35.7 9.5 34 8.8 32.3 8.4C31.7 8.2 31.3 7.7 31.3 7.1V3C31.3 2.8 31.1 2.7 31 2.7H23.9C23.7 2.7 23.6 2.9 23.6 3V7.1C23.6 7.7 23.2 8.3 22.6 8.4C20.9 8.9 19.2 9.5 17.7 10.4C17.2 10.7 16.5 10.6 16 10.2L13.1 7.3C13 7.2 12.7 7.2 12.6 7.3L7.6 12.3C7.5 12.4 7.5 12.5 7.5 12.5C7.5 12.5 7.5 12.7 7.6 12.7L10.5 15.6C10.9 16 11 16.7 10.7 17.3C9.8 18.8 9.1 20.5 8.7 22.2C8.5 22.8 8 23.2 7.4 23.2H3C2.8 23.2 2.7 23.4 2.7 23.5V30.6C2.7 30.8 2.9 30.9 3 30.9H7.1C7.7 30.9 8.3 31.3 8.4 31.9C8.8 33.6 9.5 35.3 10.4 36.8C10.7 37.3 10.6 38 10.2 38.5L7.3 41.4C7.2 41.5 7.2 41.8 7.3 41.9L8.8 43.4C9.1 43.7 9.1 44.2 8.8 44.5C8.5 44.8 8 44.8 7.7 44.5L6.2 43C5.4 42.2 5.4 41 6.2 40.2L9 37.8C8.1 36.2 7.4 34.6 6.9 32.8H3C1.9 32.8 1 31.9 1 30.8V23.7C1 22.6 1.9 21.7 3 21.7H6.9C7.4 19.9 8.1 18.3 9 16.7L6.2 14C5.8 13.6 5.6 13.1 5.6 12.6C5.6 12.1 5.8 11.6 6.2 11.2L11.2 6.2C12 5.4 13.2 5.4 14 6.2L16.8 9C18.4 8.1 20 7.4 21.8 6.9V3C21.8 1.9 22.7 1 23.8 1H30.9C32 1 32.9 1.9 32.9 3V6.9C34.7 7.4 36.3 8.1 37.9 9L40.7 6.2C41.4 5.5 42.7 5.5 43.5 6.2L48.5 11.2C48.9 11.6 49.1 12.1 49.1 12.6C49.1 13.1 48.9 13.6 48.5 14L45.7 16.8C46.6 18.4 47.3 20 47.8 21.8H51.7C52.8 21.8 53.7 22.7 53.7 23.8V30.9C53.7 32 52.8 32.9 51.7 32.9H47.8C47.3 34.7 46.6 36.3 45.7 37.9L48.5 40.7C49.3 41.5 49.3 42.7 48.5 43.5L47 45C46.7 45 46.5 45.1 46.3 45.1Z" fill="#222222"/>
<path d="M27.3 36.1C23.4 36.1 20.2 32.9 20.2 29C20.2 25.1 23.4 21.9 27.3 21.9C31.2 21.9 34.4 25.1 34.4 29C34.4 32.9 31.2 36.1 27.3 36.1ZM27.3 23.6C24.3 23.6 21.9 26 21.9 29C21.9 32 24.3 34.4 27.3 34.4C30.3 34.4 32.7 32 32.7 29C32.7 26 30.3 23.6 27.3 23.6Z" fill="#222222"/>
<path d="M42.7 54.4H11.8C11.4 54.4 11 54 11 53.6C11 46.3 15.9 39.9 22.9 38C23.3 37.9 23.8 38.1 23.9 38.6C24 39 23.8 39.5 23.3 39.6C17.2 41.3 12.9 46.6 12.6 52.9H41.8C41.5 46.7 37.1 41.3 31.1 39.6C30.7 39.5 30.4 39 30.5 38.6C30.6 38.2 31.1 37.9 31.5 38C38.5 39.9 43.4 46.4 43.4 53.6C43.5 54 43.1 54.4 42.7 54.4Z" fill="#222222"/>
<path d="M43 21.2C40.5 14.8 34.2 10.5 27.3 10.5C18 10.5 10.5 18 10.5 27.3C10.5 31.2 11.8 34.8 14.2 37.8C14.3 38 14.6 38.1 14.8 38.1C15 38.1 15.2 38 15.5 37.8C15.8 37.6 15.9 37 15.6 36.7C13.4 34 12.2 30.7 12.2 27.2C12.2 18.8 19 12 27.4 12C33.6 12 39.3 15.9 41.5 21.7C41.6 22.2 42.1 22.4 42.5 22.2C43 22.1 43.2 21.6 43 21.2ZM43 21.2C42.8 20.7 42.3 20.5 41.9 20.7C41.4 20.9 41.2 21.4 41.4 21.8C41.6 22.3 41.8 22.8 41.9 23.3C42 23.7 42.3 23.9 42.7 23.9C42.8 23.9 42.8 23.9 42.9 23.8C43.4 23.7 43.6 23.2 43.5 22.8C43.4 22.3 43.2 21.7 43 21.2ZM39.7 38.1C39.5 38.1 39.3 38 39.2 37.9C38.9 37.6 38.8 37.1 39.1 36.8C39.4 36.4 39.7 36 40 35.6C40.2 35.2 40.7 35.1 41.1 35.4C41.5 35.6 41.6 36.1 41.3 36.5C41 37 40.7 37.4 40.3 37.9C40.2 38 39.9 38.1 39.7 38.1ZM41.9 34.4C41.8 34.4 41.7 34.4 41.6 34.3C41.2 34.1 41 33.6 41.2 33.2C41.5 32.4 41.8 31.6 42 30.8C42.1 30.4 42.5 30.1 43 30.2C43.4 30.3 43.7 30.7 43.6 31.2C43.4 32.1 43.1 33 42.7 33.9C42.5 34.2 42.2 34.4 41.9 34.4ZM43.2 29.2C42.7 29.2 42.4 28.8 42.4 28.3C42.4 27.9 42.4 27.6 42.4 27.2C42.4 26.7 42.4 26.2 42.3 25.7C42.3 25.3 42.6 24.9 43 24.8C43.4 24.8 43.8 25.1 43.9 25.5C44 26 44 26.6 44 27.1C44 27.5 44 27.9 44 28.3C44 28.9 43.6 29.2 43.2 29.2ZM46.3 45.1C46.1 45.1 45.9 45 45.7 44.9C45.4 44.6 45.4 44.1 45.7 43.8L47.2 42.3C47.3 42.2 47.3 41.9 47.2 41.8L44.3 38.9C43.9 38.5 43.8 37.8 44.1 37.2C45 35.7 45.7 34 46.1 32.3C46.3 31.7 46.8 31.3 47.4 31.3H51.5C51.7 31.3 51.8 31.1 51.8 31V23.9C51.8 23.7 51.6 23.6 51.5 23.6H47.4C46.8 23.6 46.2 23.2 46.1 22.6C45.7 20.9 45 19.2 44.1 17.7C43.8 17.2 43.9 16.5 44.3 16L47.2 13.1C47.3 13 47.3 12.9 47.3 12.9C47.3 12.9 47.3 12.7 47.2 12.7L42.2 7.7C42.1 7.3 42 7.2 42 7.2C41.9 7.2 41.8 7.2 41.8 7.3L38.9 10.2C38.5 10.6 37.8 10.7 37.2 10.4C35.7 9.5 34 8.8 32.3 8.4C31.7 8.2 31.3 7.7 31.3 7.1V3C31.3 2.8 31.1 2.7 31 2.7H23.9C23.7 2.7 23.6 2.9 23.6 3V7.1C23.6 7.7 23.2 8.3 22.6 8.4C20.9 8.9 19.2 9.5 17.7 10.4C17.2 10.7 16.5 10.6 16 10.2L13.1 7.3C13 7.2 12.7 7.2 12.6 7.3L7.6 12.3C7.5 12.4 7.5 12.5 7.5 12.5C7.5 12.5 7.5 12.7 7.6 12.7L10.5 15.6C10.9 16 11 16.7 10.7 17.3C9.8 18.8 9.1 20.5 8.7 22.2C8.5 22.8 8 23.2 7.4 23.2H3C2.8 23.2 2.7 23.4 2.7 23.5V30.6C2.7 30.8 2.9 30.9 3 30.9H7.1C7.7 30.9 8.3 31.3 8.4 31.9C8.8 33.6 9.5 35.3 10.4 36.8C10.7 37.3 10.6 38 10.2 38.5L7.3 41.4C7.2 41.5 7.2 41.8 7.3 41.9L8.8 43.4C9.1 43.7 9.1 44.2 8.8 44.5C8.5 44.8 8 44.8 7.7 44.5L6.2 43C5.4 42.2 5.4 41 6.2 40.2L9 37.8C8.1 36.2 7.4 34.6 6.9 32.8H3C1.9 32.8 1 31.9 1 30.8V23.7C1 22.6 1.9 21.7 3 21.7H6.9C7.4 19.9 8.1 18.3 9 16.7L6.2 14C5.8 13.6 5.6 13.1 5.6 12.6C5.6 12.1 5.8 11.6 6.2 11.2L11.2 6.2C12 5.4 13.2 5.4 14 6.2L16.8 9C18.4 8.1 20 7.4 21.8 6.9V3C21.8 1.9 22.7 1 23.8 1H30.9C32 1 32.9 1.9 32.9 3V6.9C34.7 7.4 36.3 8.1 37.9 9L40.7 6.2C41.4 5.5 42.7 5.5 43.5 6.2L48.5 11.2C48.9 11.6 49.1 12.1 49.1 12.6C49.1 13.1 48.9 13.6 48.5 14L45.7 16.8C46.6 18.4 47.3 20 47.8 21.8H51.7C52.8 21.8 53.7 22.7 53.7 23.8V30.9C53.7 32 52.8 32.9 51.7 32.9H47.8C47.3 34.7 46.6 36.3 45.7 37.9L48.5 40.7C49.3 41.5 49.3 42.7 48.5 43.5L47 45C46.7 45 46.5 45.1 46.3 45.1ZM27.3 36.1C23.4 36.1 20.2 32.9 20.2 29C20.2 25.1 23.4 21.9 27.3 21.9C31.2 21.9 34.4 25.1 34.4 29C34.4 32.9 31.2 36.1 27.3 36.1ZM27.3 23.6C24.3 23.6 21.9 26 21.9 29C21.9 32 24.3 34.4 27.3 34.4C30.3 34.4 32.7 32 32.7 29C32.7 26 30.3 23.6 27.3 23.6ZM42.7 54.4H11.8C11.4 54.4 11 54 11 53.6C11 46.3 15.9 39.9 22.9 38C23.3 37.9 23.8 38.1 23.9 38.6C24 39 23.8 39.5 23.3 39.6C17.2 41.3 12.9 46.6 12.6 52.9H41.8C41.5 46.7 37.1 41.3 31.1 39.6C30.7 39.5 30.4 39 30.5 38.6C30.6 38.2 31.1 37.9 31.5 38C38.5 39.9 43.4 46.4 43.4 53.6C43.5 54 43.1 54.4 42.7 54.4Z" stroke="#222222"/>
</svg>
