<svg width="88" height="88" viewBox="0 0 88 88" fill="none" xmlns="http://www.w3.org/2000/svg">
<path fill-rule="evenodd" clip-rule="evenodd" d="M30.1932 39.2432V36.6898H83.1886V2.716H25.1148V28.9206H22.6064V2.69453H20.3077V0H88V2.62859H85.8319V36.6131H87.9813V39.2432H30.1932ZM16.9986 85.2311H19.6882V85.1142C19.6911 84.8652 19.6926 84.6512 19.6867 84.4371L19.5568 79.7312C19.4283 74.9341 19.2969 70.1386 19.1567 65.3431C19.0793 62.6941 18.9932 60.0451 18.9056 57.3961L18.8895 56.9224C18.8238 54.8898 18.7595 52.8556 18.6968 50.8229L18.6442 49.1864L18.6421 49.1196L18.6421 49.1193C18.5741 46.9725 18.5039 44.7552 18.4923 42.5677C18.485 41.077 18.9348 39.814 19.7918 38.9199C20.6533 38.0181 21.874 37.5399 23.3209 37.5399C23.4247 37.5399 23.5285 37.5444 23.6337 37.5489L23.6378 37.5491L23.7003 37.552C23.8056 37.5569 23.8962 37.5612 23.9868 37.5612C24.1488 37.5612 24.2773 37.5491 24.3927 37.5232C24.7095 37.4549 25.1008 37.3472 25.3082 37.127C28.2519 34.0328 31.1767 30.9202 34.1021 27.807L34.103 27.8061L34.1035 27.8056L34.4324 27.4555L36.2386 25.5337C36.2809 25.4881 36.3218 25.4396 36.3627 25.3895L36.4298 25.306L34.3623 23.167L34.2849 23.2824C34.1856 23.4327 34.0659 23.6057 33.9184 23.7591L33.3709 24.3314L33.1197 24.5939L33.1195 24.5941L33.1195 24.5941L33.1194 24.5941C30.8441 26.9715 28.4983 29.4227 26.1565 31.8032C25.8148 32.1509 25.2497 32.3937 24.7504 32.4059C23.6874 32.4332 22.6245 32.4454 21.56 32.4454C20.5204 32.4454 19.4838 32.4347 18.4456 32.4196C17.8879 32.4196 17.6572 32.5577 17.4484 33.0101C17.2039 33.5421 16.9231 34.0538 16.6511 34.5493L16.6511 34.5494L16.6511 34.5494L16.6511 34.5494L16.651 34.5495L16.651 34.5495L16.651 34.5495L16.651 34.5496L16.651 34.5496L16.651 34.5497L16.6509 34.5497L16.6509 34.5497L16.6336 34.5813C16.2073 35.3585 15.8072 36.0917 15.521 36.8841C14.9413 38.4994 13.9674 39.2857 12.5438 39.2857C12.2737 39.2857 11.9846 39.2584 11.678 39.2052C11.1392 39.1096 10.7333 38.9973 10.4384 38.4128C10.0427 37.6295 9.63383 36.8523 9.225 36.075L9.18411 35.9976L9.1428 35.919C8.65577 34.9919 8.16931 34.0659 7.70356 33.1285C7.48892 32.6958 7.34437 32.6609 7.1896 32.6609C7.09615 32.6609 6.9808 32.6822 6.83917 32.7262C4.22119 33.5323 2.52745 35.8746 2.52453 38.6921C2.51869 44.0934 2.51869 49.4961 2.52015 54.8989L2.52161 55.6442C2.52161 55.8158 2.53183 55.9858 2.54352 56.1558L2.55082 56.2651H3.97881L4.27521 45.5052H6.82311L5.72802 85.2296H8.43946L11.4677 59.5213L13.8346 59.6777L16.9986 85.2311ZM15.5444 88C14.772 88 14.5705 87.5932 14.4975 86.9389C13.9806 82.2587 13.4374 77.5816 12.8928 72.906L12.7585 71.7477L12.5336 71.7462C12.4694 72.2441 12.408 72.7253 12.3482 73.2081L11.9452 76.4643C11.5013 80.0575 11.056 83.6508 10.5975 87.2425C10.5639 87.5081 10.2456 87.9499 9.94776 87.9545C8.59861 87.9757 7.24801 87.9803 5.87842 87.9803L3.0166 87.9787L3.83426 59.0006H0V37.1559C0.196753 36.7408 0.356779 36.3316 0.516202 35.9239L0.524181 35.9035L0.524709 35.9021C0.89103 34.9629 1.26619 34.001 1.8339 33.1846C3.23999 31.158 5.36446 30.0954 8.1489 30.0241C8.71104 30.0241 9.02934 30.2244 9.28632 30.7375C10.2091 32.582 11.1772 34.4674 12.1671 36.3392C12.2693 36.532 12.4679 36.7399 12.5847 36.7733L12.6431 36.79L12.6884 36.7475C12.7293 36.7111 12.903 36.5289 13.0184 36.3103C14.1178 34.2215 15.0187 32.4651 15.851 30.7831C16.1197 30.2427 16.4599 30.021 17.0249 30.021C18.1945 30.0347 19.3377 30.0453 20.481 30.0453C21.6068 30.0453 22.7325 30.0347 23.8583 30.0074C24.2686 29.9967 24.765 29.7872 25.0395 29.5064C27.8356 26.6601 30.566 23.8076 33.5899 20.641C33.7052 20.5197 33.7913 20.3523 33.9091 20.1233L33.9184 20.1051L33.9273 20.0878C33.998 19.9496 34.0759 19.7973 34.174 19.6254L34.339 19.337L36.2502 21.775L44.6036 13.0811L46.2564 14.9301L38.2039 23.7014L40.1166 25.4198L39.683 25.9223L39.6789 25.9271L39.6786 25.9274C39.523 26.1101 39.4014 26.2529 39.2712 26.3868L37.2782 28.462L36.9737 28.779L36.9735 28.7792C33.5314 32.3623 30.09 35.9447 26.6252 39.5028C26.2499 39.8884 25.6235 40.0584 25.1651 40.1313C24.949 40.1662 24.7124 40.1829 24.4248 40.1829C24.2394 40.1829 24.0525 40.1768 23.8656 40.1692C23.6845 40.1631 23.5035 40.1571 23.3224 40.1571C22.5296 40.1571 21.9251 40.3681 21.5279 40.7855C21.1264 41.206 20.9234 41.8482 20.9249 42.6922C20.9263 44.223 20.9686 45.7826 21.0094 47.2909L21.0094 47.291L21.0096 47.298L21.014 47.4392C21.1863 53.8347 21.3615 60.2303 21.5469 66.6258C21.6623 70.6654 22.147 86.9753 22.147 86.9753C22.1514 87.115 22.1441 87.2561 22.1324 87.4398L22.1061 87.9848H20.0138L17.4644 87.9757C16.8483 87.9757 16.235 87.9818 15.6203 87.9985L15.5444 88ZM85.4114 84.7598L85.4471 85.2014L85.5776 86.8108L87.9161 86.6949L87.9433 86.5032L87.9706 86.3308L87.9751 86.3044C87.9908 86.2118 88.0057 86.1243 87.9978 86.0306C87.9573 85.5084 87.9216 84.9853 87.8859 84.4627L87.8858 84.4611L87.8857 84.4596L87.8856 84.4581L87.8705 84.238L87.8486 83.9204C87.7382 82.256 87.6234 80.5352 87.3967 78.8545C87.0797 76.4991 85.7398 74.8584 83.5233 74.1124L83.1316 73.9802C82.3397 73.7157 81.522 73.4408 80.7402 73.1183C80.5178 73.0261 80.3399 72.9816 80.1821 72.9816C79.7287 72.9816 79.4949 73.3427 79.3428 73.6562C78.5165 75.3533 77.6027 77.0771 76.795 78.5974C76.7261 78.7281 76.6113 78.8426 76.4679 78.9793L76.3947 79.0476L76.3201 78.9837L76.3117 78.9763C76.1918 78.8712 76.0574 78.7533 75.9902 78.6241C75.6205 77.9262 75.259 77.2227 74.8805 76.4862L74.8805 76.486L74.8793 76.4838L74.8482 76.4233C74.3518 75.4558 73.854 74.4884 73.339 73.5314C73.197 73.2684 72.7738 73.0083 72.494 73.0083L72.3434 73.0321C71.0751 73.4705 69.836 73.9405 68.5209 74.4393L68.4542 74.4646L67.4198 74.857L67.3696 74.7931C66.2134 73.2967 64.5178 72.7662 62.8653 72.249L62.8649 72.2489C62.1146 72.0141 61.3399 71.7704 60.6183 71.4375L60.4318 71.3513L59.5079 73.1183C58.6572 74.7544 57.8266 76.3475 56.9758 77.9301C56.8639 78.1412 56.6358 78.3566 56.5053 78.3968C56.326 78.3759 56.0419 78.1382 55.9114 77.896C54.8971 76.0205 53.9101 74.1288 52.9776 72.2742C52.7653 71.8507 52.5386 71.5683 52.1226 71.5683C51.9705 71.5683 51.7998 71.6084 51.6004 71.6917C50.8271 72.0156 50.0151 72.2891 49.2146 72.5565L48.417 72.8255C47.1344 73.2669 46.1661 73.9163 45.5377 74.7559L45.4889 74.8213L39.9413 72.7794L39.1035 74.3993L39.0936 74.4183C38.4788 75.6093 37.8837 76.7622 37.2686 77.9034C37.0979 78.2214 36.8712 78.5201 36.6532 78.8069L36.5154 78.9912L36.3706 78.8054C36.1367 78.5082 35.9172 78.2259 35.7494 77.9138C35.1497 76.7973 34.5695 75.6673 33.979 74.5174L33.8901 74.3443L33.1369 72.8798C33.9947 73.4288 34.9894 73.7246 36.0343 73.7297H36.0621C39.2262 73.7297 41.7212 71.1523 41.7435 67.8617C41.7532 66.24 41.1706 64.7226 40.1029 63.589C39.0408 62.4598 37.6051 61.8378 36.0607 61.8378C33.0431 61.854 30.4798 64.5447 30.4617 67.7147C30.4519 69.3541 31.029 70.8773 32.0841 72.0036C32.3702 72.3082 32.6841 72.5755 33.0202 72.803L31.5503 73.3352L31.533 73.3414L31.5329 73.3415C30.4964 73.7121 29.5162 74.0627 28.529 74.4661C27.5807 74.854 26.8275 75.5747 26.225 76.6714C25.5141 77.9645 25.4032 79.3821 25.2957 80.7554L25.2954 80.7596L25.2825 80.9141C25.1934 82.0478 25.0993 83.1801 25.0027 84.3444L24.9798 84.6204L24.8205 86.5329L27.2995 86.6578L27.3741 86.2015C27.4028 86.041 27.4258 85.9043 27.4372 85.7661L27.6094 83.6619C27.7227 82.2367 27.8375 80.8116 27.9723 79.3894C28.0785 78.2675 28.5433 77.4917 29.3553 77.0846C29.94 76.789 30.5483 76.5627 31.2528 76.3005L31.2863 76.288L31.9089 76.0532L31.9534 76.1409C32.1413 76.505 32.3307 76.8617 32.533 77.2406C33.0738 78.2556 33.5831 79.2141 33.9877 80.2276C34.4769 81.4506 35.1956 81.9499 36.4667 81.9499C36.5372 81.9499 36.609 81.9472 36.6835 81.9443L36.6919 81.944C37.7019 81.9038 38.3819 81.6616 38.8668 80.5396C39.3488 79.4281 39.9241 78.3329 40.4807 77.2748L41.1091 76.0681L41.7231 76.2895L41.8747 76.3441C42.3974 76.5319 42.8968 76.7114 43.3901 76.9107C44.0228 77.1663 44.2451 77.5066 44.182 78.1248C44.017 79.7431 43.8807 81.4967 43.7531 83.6411C43.7153 84.2632 43.7239 84.8727 43.7336 85.5696L43.7344 85.6264C43.7387 85.9088 43.743 86.1941 43.743 86.4854V86.7142H46.0384L46.6381 79.0907C46.7614 77.5155 47.3869 76.4099 48.4944 75.8051C49.1523 75.4458 49.8588 75.2037 50.6168 74.9439L50.617 74.9439L50.6191 74.9432C50.8658 74.8599 51.1126 74.7752 51.3593 74.6861L51.4483 74.6534L51.4942 74.7381C51.6994 75.1289 51.9088 75.5108 52.1168 75.8898C52.6864 76.9226 53.2229 77.8989 53.616 78.9481C54.2114 80.5382 55.1324 81.2797 56.5153 81.2797C56.7578 81.2797 57.0218 81.2559 57.2972 81.2099C57.7419 81.1356 58.2039 81.0583 58.5051 80.4297C58.9617 79.4778 59.4564 78.523 59.9556 77.5596L59.9684 77.5348L61.4576 74.6593L62.0945 74.8956L62.0956 74.896C62.6705 75.1128 63.2139 75.3178 63.7659 75.5004C65.1531 75.9596 65.9493 77.0325 66.2018 78.7816C66.351 79.8134 66.4228 80.8787 66.4925 81.9126L66.4925 81.9128L66.4945 81.9425L66.5002 82.0272L66.5003 82.029C66.5247 82.3969 66.549 82.7649 66.5777 83.1313C66.6394 83.9189 66.6925 84.7066 66.7441 85.4778L66.8273 86.683H69.3852L69.1815 84.121L69.1803 84.1053L69.1802 84.1044C69.0386 82.2942 68.8998 80.5193 68.7339 78.746C68.612 77.4516 68.6363 77.3996 69.6277 76.9092C70.1318 76.6585 70.6559 76.4715 71.2172 76.2712L71.2173 76.2712L71.2176 76.2711L71.2179 76.271L71.2183 76.2708L71.2186 76.2707L71.2201 76.2702L71.7939 76.0622L71.8398 76.1483C72.0027 76.4617 72.1708 76.7696 72.3367 77.0734L72.3367 77.0735L72.3368 77.0736L72.3368 77.0737L72.3369 77.0738L72.3369 77.0738L72.337 77.0739L72.337 77.074L72.3371 77.0741L72.3606 77.1173C72.8469 78.0059 73.306 78.847 73.6331 79.7446C74.1869 81.2693 75.0663 81.9796 76.3976 81.9796C76.6156 81.9796 76.8538 81.9588 77.1034 81.9217C77.7361 81.8236 78.1751 81.7092 78.5022 81.0211C79.0674 79.8302 79.675 78.6378 80.2652 77.4797L80.2655 77.4791L80.337 77.3387L80.9855 76.0651L81.4345 76.2375L81.4761 76.2536C81.9025 76.4186 82.3057 76.5745 82.717 76.7026C83.9379 77.0846 84.6495 77.9539 84.8905 79.3612C85.021 80.1265 85.0884 80.923 85.1544 81.7032L85.2061 82.3036C85.279 83.1185 85.3448 83.9334 85.4112 84.7564L85.4113 84.7584L85.4114 84.7598ZM29.3333 8.32432H77.8462V5.94595H29.3333V8.32432ZM77.8462 30.9189H41.7436V28.5405H77.8462V30.9189ZM55.7048 60.8945C53.7336 60.955 52.1406 62.6607 52.1294 64.7473C52.1238 65.815 52.5133 66.8177 53.2236 67.5709C53.9325 68.3225 54.881 68.736 55.8911 68.736C57.9155 68.736 59.5659 67.0023 59.5715 64.8714C59.5757 62.6474 58.0178 60.9565 55.9289 60.8945L55.9205 60.6611L55.7048 60.6656V60.8945ZM55.8771 71.3513C54.1847 71.344 52.6058 70.6484 51.4289 69.3917C50.2619 68.1468 49.6272 66.4914 49.6413 64.7325C49.6721 61.2297 52.5007 58.2703 55.8182 58.2703C59.3081 58.2998 62.0457 61.1898 62.0513 64.8507C62.0527 66.5652 61.4082 68.1911 60.2342 69.4301C59.0616 70.6691 57.5219 71.3513 55.8981 71.3513H55.8771ZM73.2736 65.5043C73.8582 64.8707 74.6437 64.4914 75.4418 64.4547L75.4669 64.2121L75.6818 64.2239V64.4547C77.3701 64.5135 78.7374 65.9792 78.7514 67.7698C78.7667 69.5722 77.2794 71.1717 75.5688 71.1937C73.9154 71.1923 72.3848 69.5942 72.3597 67.8374C72.3472 66.9965 72.6806 66.1468 73.2736 65.5043ZM71.5588 72.0141C72.6053 73.1196 74.0229 73.7297 75.5493 73.7297C78.7206 73.7297 81.2154 71.1291 81.2307 67.8095C81.2377 66.2291 80.6489 64.7311 79.5745 63.5946C78.5044 62.4626 77.0784 61.8378 75.5576 61.8378C72.4197 61.8687 69.9557 64.5061 69.9487 67.8419C69.9459 69.434 70.518 70.9159 71.5588 72.0141ZM35.9966 64.4535C34.3407 64.5168 32.9037 66.0473 32.8953 67.7867C32.8898 68.6322 33.2438 69.4967 33.8654 70.1554C34.4843 70.8126 35.2941 71.1905 36.0886 71.192C37.7794 71.192 39.2847 69.6114 39.3098 67.8088C39.3224 66.9354 39.0087 66.1076 38.4233 65.4754C37.8407 64.8476 37.0643 64.4859 36.228 64.4535L36.2113 64.2153L35.9966 64.2242V64.4535ZM77.8462 24.973H51.8974V22.5946H77.8462V24.973ZM12.2106 20.4106C10.6048 20.4832 9.31168 21.8399 9.30729 23.4825C9.30583 24.4204 9.64044 25.2934 10.2512 25.9409C10.8298 26.5543 11.594 26.8912 12.402 26.8912C13.2086 26.8896 13.9742 26.5466 14.5543 25.927C15.1388 25.3043 15.4588 24.493 15.4544 23.6401C15.4456 21.8662 14.1394 20.4693 12.459 20.4091V20.168L12.234 20.1556L12.2106 20.4106ZM12.3918 29.7297C10.8839 29.7297 9.47095 29.1116 8.41306 27.9898C7.34934 26.8618 6.76487 25.3522 6.76926 23.7374C6.77802 20.5404 9.33652 17.8378 12.3582 17.8378C13.929 17.8579 15.3346 18.4806 16.4188 19.6395C17.4898 20.7845 18.0684 22.2834 18.0509 23.861C18.0129 27.0967 15.4734 29.7297 12.3918 29.7297ZM65.053 80.8649L62.0513 81.0128L62.4531 86.8108L65.4359 86.6235L65.053 80.8649ZM47.3846 86.6793L47.758 80.8649L50.7692 81.0555L50.3924 86.8108L47.3846 86.6793ZM84.2378 82.0541L81.2308 82.2695L81.5824 86.8108L84.6154 86.6696L84.2378 82.0541ZM28.2051 86.8108L28.4199 82.0541L30.4615 82.2611L30.2398 86.8108H28.2051ZM58.6667 14.2703H56.4103V11.8919H58.6667V14.2703ZM62.0513 14.2703H64.3077V11.8919H62.0513V14.2703ZM68.8205 14.2703H66.5641V11.8919H68.8205V14.2703ZM71.0769 14.2703H73.3333V11.8919H71.0769V14.2703ZM77.8462 14.2703H75.5897V11.8919H77.8462V14.2703Z" fill="#222222"/>
</svg>
