<?xml version="1.0" encoding="iso-8859-1"?>
<!-- Generator: Adobe Illustrator 19.0.0, SVG Export Plug-In . SVG Version: 6.00 Build 0)  -->
<svg version="1.1" id="Capa_1" xmlns="http://www.w3.org/2000/svg" xmlns:xlink="http://www.w3.org/1999/xlink" x="0px" y="0px"
	 viewBox="0 0 480 480" style="enable-background:new 0 0 480 480;" xml:space="preserve">
<g>
	<g>
		<path d="M408,0H120C89.12,0,64,28.72,64,64v360c0,30.928,25.072,56,56,56h288c4.418,0,8-3.582,8-8V8C416,3.582,412.418,0,408,0z
			 M80,64c0-23.2,13.76-42.56,32-47.04v352c-12.129,1.691-23.37,7.311-32,16V64z M400,464H120c-22.091,0-40-17.909-40-40
			c0-22.091,17.909-40,40-40h280V464z M400,368H128V16h272V368z"/>
	</g>
</g>
<g>
	<g>
		<path d="M344,56H184c-4.418,0-8,3.582-8,8v64c0,4.418,3.582,8,8,8h160c4.418,0,8-3.582,8-8V64C352,59.582,348.418,56,344,56z
			 M336,120H192V72h144V120z"/>
	</g>
</g>
<g>
	<g>
		<path d="M384,416v-16H120c-4.418,0-8,3.582-8,8v32c0,4.418,3.582,8,8,8h264v-16H128v-16H384z"/>
	</g>
</g>
<g>
	<g>
		<rect x="336" y="320" width="32" height="16"/>
	</g>
</g>
<g>
	<g>
		<rect x="304" y="320" width="16" height="16"/>
	</g>
</g>
<g>
</g>
<g>
</g>
<g>
</g>
<g>
</g>
<g>
</g>
<g>
</g>
<g>
</g>
<g>
</g>
<g>
</g>
<g>
</g>
<g>
</g>
<g>
</g>
<g>
</g>
<g>
</g>
<g>
</g>
</svg>
