<svg width="29" height="32" viewBox="0 0 29 32" fill="none" xmlns="http://www.w3.org/2000/svg">
<path fill-rule="evenodd" clip-rule="evenodd" d="M4.35506 31.7911L4.30297 31.7766L4.28413 31.7712C4.26437 31.7654 4.25437 31.7625 4.24471 31.7617C2.64558 31.5992 1.22904 30.4111 0.799986 28.8725C0.744535 28.6745 0.710928 28.4704 0.677881 28.2663L0.669134 28.2128L0.669129 28.2127C0.657027 28.1385 0.644937 28.0644 0.631391 27.9906L0.62915 7.94628C0.637529 7.91392 0.643558 7.89118 0.647852 7.87498L0.647855 7.87497L0.647856 7.87497L0.64786 7.87495C0.655041 7.84787 0.657366 7.8391 0.657716 7.83424C0.683482 7.41049 0.778702 7.01281 0.940576 6.65284C1.64016 5.09595 2.83546 4.25788 4.49397 4.16193C4.89893 4.13808 5.30558 4.13142 5.71166 4.13142C5.98892 4.13142 6.26562 4.13419 6.54288 4.13752L6.60617 4.13863C6.86103 4.14141 7.11588 4.14418 7.37074 4.14418C7.37074 4.14418 7.54549 4.14196 7.58358 4.13974V2.18018L10.2173 2.18184C10.2828 2.18184 10.3108 2.16964 10.3455 2.12527C10.7421 1.61277 11.2529 1.19457 11.8629 0.881751C12.7232 0.440807 13.6357 0.217285 14.5761 0.217285C15.0186 0.217285 15.4751 0.267203 15.9327 0.365376C17.1633 0.628278 18.1513 1.21509 18.8705 2.10918C18.9159 2.16576 18.9517 2.1824 19.0229 2.1824C19.4267 2.18018 21.3524 2.18018 21.3524 2.18018H21.6538L21.6549 2.92007C21.656 3.30833 21.6566 3.69658 21.6504 4.08483C21.6504 4.12477 21.6538 4.14251 21.656 4.14862C21.6562 4.14843 21.6592 4.14863 21.6644 4.14897C21.6744 4.14964 21.6924 4.15083 21.7137 4.15083C22.1875 4.14751 22.6558 4.1464 23.1246 4.1464L24.4191 4.14917C24.6392 4.15028 24.8537 4.15416 25.0638 4.188C26.7783 4.46532 27.912 5.44039 28.4334 7.08768C28.4883 7.26295 28.5191 7.44543 28.5483 7.62236L28.5511 7.63963C28.5666 7.73497 28.5794 7.814 28.5953 7.89303L28.597 28.0344C28.5895 28.0632 28.584 28.084 28.5799 28.0995C28.5717 28.1304 28.5692 28.1398 28.5684 28.1487C28.4273 29.7317 27.3042 31.1149 25.7734 31.5914C25.574 31.653 25.3685 31.6934 25.1629 31.7334L24.8756 31.7911H4.35506ZM19.4385 4.36104V8.05H9.78597V4.36659H11.9066L11.9626 4.31501L11.9659 4.26287C12.0029 3.67994 12.3009 3.22125 12.8767 2.86128C13.1696 2.67825 13.5085 2.54846 13.8838 2.47469C14.1414 2.42367 14.3969 2.39815 14.6428 2.39815C15.1614 2.39815 15.6599 2.51296 16.1231 2.73926C16.7045 3.02324 17.0569 3.40539 17.2008 3.90845C17.2204 3.97723 17.2327 4.04878 17.2484 4.14418L17.2865 4.36104H19.4385ZM3.78486 6.56964C4.05595 6.40935 4.35058 6.32782 4.662 6.32782C4.662 6.32782 7.55725 6.32782 7.56734 6.32837V10.2225H21.6487V6.32505C21.6594 6.32449 23.3453 6.32116 23.3453 6.32116C23.7324 6.32116 24.1194 6.32227 24.507 6.32616C25.4396 6.33558 26.1638 6.92906 26.3515 7.83812C26.38 7.97789 26.384 8.12376 26.384 8.26076C26.3856 14.7324 26.3862 21.2034 26.3851 27.6745C26.3845 28.6346 25.821 29.3606 24.9142 29.5686C24.7809 29.6002 24.6442 29.6157 24.5081 29.6157L4.72082 29.6174C3.68572 29.6168 2.8573 28.8004 2.83546 27.7599L2.8349 8.26742C2.8349 7.51421 3.15472 6.94292 3.78486 6.56964Z" fill="url(#paint0_linear)"/>
<defs>
<linearGradient id="paint0_linear" x1="1.00571" y1="31.5785" x2="28.597" y2="31.5785" gradientUnits="userSpaceOnUse">
<stop stop-color="#008FFF"/>
<stop offset="1" stop-color="#7C84E5"/>
</linearGradient>
</defs>
</svg>
